<?xml version="1.0" standalone="no"?>
<!DOCTYPE svg PUBLIC "-//W3C//DTD SVG 1.1//EN" "http://www.w3.org/Graphics/SVG/1.1/DTD/svg11.dtd" >
<svg xmlns="http://www.w3.org/2000/svg">
<metadata></metadata>
<defs>
<font id="metrischlight_italic" horiz-adv-x="622" >
<font-face units-per-em="1000" ascent="750" descent="-250" />
<missing-glyph horiz-adv-x="295" />
<glyph unicode="&#xfb01;" horiz-adv-x="473" d="M497 683q18 0 28.5 -12.5t6.5 -30.5q-3 -17 -17.5 -29.5t-32.5 -12.5q-17 0 -27.5 12.5t-7.5 29.5q4 18 18.5 30.5t31.5 12.5zM220 492h269l-86 -492h-50l79 452h-219l-79 -452h-51l79 452h-63l7 40h63l9 48q23 135 152 135q20 0 44 -3l-7 -40q-32 4 -44 4q-77 0 -94 -97 z" />
<glyph unicode="&#xfb02;" horiz-adv-x="472" d="M169 492l9 48q23 135 152 135q20 0 44 -3l-7 -40q-32 4 -44 4q-77 0 -94 -97l-9 -47h125l-7 -40h-125l-79 -452h-51l79 452h-63l7 40h63zM403 0h-51l117 666h51z" />
<glyph unicode="&#xfb03;" horiz-adv-x="756" d="M452 492l9 48q23 135 152 135q20 0 44 -3l-7 -40q-32 4 -44 4q-77 0 -94 -97l-9 -47h125l-7 -40h-125l-79 -452h-51l79 452h-232l-79 -452h-51l79 452h-63l7 40h63l9 48q23 135 152 135q20 0 44 -3l-7 -40q-32 4 -44 4q-77 0 -94 -97l-9 -47h232zM636 0h50l86 492h-50z M730 640q4 18 18.5 30.5t31.5 12.5q18 0 28.5 -12.5t6.5 -30.5q-3 -17 -17.5 -29.5t-32.5 -12.5q-17 0 -27.5 12.5t-7.5 29.5z" />
<glyph unicode="&#xfb04;" horiz-adv-x="755" d="M452 492l9 48q23 135 151 135q20 0 44 -3l-7 -40q-30 4 -44 4q-76 0 -94 -98l-8 -46h124l-7 -40h-124l-79 -452h-51l79 452h-232l-79 -452h-51l79 452h-63l7 40h63l9 48q23 135 152 135q20 0 44 -3l-7 -40q-32 4 -44 4q-77 0 -94 -97l-9 -47h232zM685 0h-50l117 666h50z " />
<glyph horiz-adv-x="1000" />
<glyph horiz-adv-x="1000" />
<glyph unicode="&#xd;" horiz-adv-x="1000" />
<glyph unicode=" "  horiz-adv-x="295" />
<glyph unicode="&#x09;" horiz-adv-x="295" />
<glyph unicode="&#xa0;" horiz-adv-x="295" />
<glyph unicode="!" horiz-adv-x="243" d="M161 129h-35l81 538h64zM86 42q3 18 17.5 30t31.5 12q18 0 28.5 -12t7.5 -30t-17.5 -30t-32.5 -12q-17 0 -27.5 12t-7.5 30z" />
<glyph unicode="&#x22;" horiz-adv-x="333" d="M172 516l31 68q-29 8 -23 40q3 19 17 31t32 12t28 -12t7 -31q-3 -14 -70 -108h-22zM296 516l31 68q-29 8 -23 40q3 19 17 31t31 12q19 0 29 -12t7 -31q-2 -12 -70 -108h-22z" />
<glyph unicode="#" horiz-adv-x="782" d="M448 -12l74 208h-253l-73 -208h-47l73 208h-118l16 43h118l69 198h-117l14 44h118l70 199h47l-70 -199h252l71 199h47l-71 -199h128l-14 -44h-128l-70 -198h128l-16 -43h-127l-74 -208h-47zM537 239l70 198h-253l-69 -198h252z" />
<glyph unicode="$" horiz-adv-x="631" d="M277 -66l10 58q-133 7 -202 82l9 52q32 -40 86 -63.5t115 -26.5l50 286q-49 11 -78 21t-61.5 28.5t-44.5 48t-5 70.5q15 84 88.5 132.5t163.5 52.5l10 57h36l-10 -57q116 -7 187 -79l-10 -52q-30 39 -80 61.5t-105 25.5l-48 -273q41 -9 65.5 -16t56.5 -21t48.5 -31 t25.5 -45t3 -64q-15 -89 -92 -137.5t-172 -51.5l-10 -58h-36zM353 367l47 264q-71 -2 -129 -39t-69 -104q-5 -29 4 -49.5t34.5 -34t48.5 -21t64 -16.5zM380 313l-49 -277q73 2 134.5 39.5t74.5 107.5q5 31 -5 53.5t-37 37t-51.5 22.5t-66.5 17z" />
<glyph unicode="%" horiz-adv-x="899" d="M277 0h-39l580 667h40zM356 665q74 0 114 -46.5t25 -128.5t-70.5 -128.5t-130.5 -46.5q-74 0 -113.5 47t-24.5 128q14 81 70 128t130 47zM350 633q-58 0 -102.5 -37.5t-56.5 -105.5t19.5 -105.5t89.5 -37.5q59 0 103.5 37t56.5 106q10 59 -17.5 101t-92.5 42zM783 350 q73 0 113.5 -47t25.5 -128q-15 -82 -70.5 -128.5t-129.5 -46.5t-114 47t-26 128q15 81 71 128t130 47zM778 318q-58 0 -103.5 -37.5t-57.5 -105.5t20 -105.5t90 -37.5t102.5 37.5t56.5 105.5q11 58 -16 100.5t-92 42.5z" />
<glyph unicode="&#x26;" horiz-adv-x="694" d="M583 -21l-78 113q-63 -55 -116 -83t-118 -28q-39 0 -75 10t-66.5 30.5t-45 57t-6.5 83.5q4 17 10 33t16.5 31t18.5 26.5t24.5 26t25 22.5t29.5 22.5t28.5 19.5t32 21t30.5 20q-86 107 -71 192q9 54 59 90t108 36q64 0 102.5 -36.5t28.5 -94.5q-9 -55 -52 -99.5 t-109 -89.5q46 -56 155 -215q59 68 105 165h49q-56 -121 -129 -205l101 -148h-57zM334 413q126 83 139 159q8 42 -19.5 67t-70.5 25q-41 0 -73.5 -26t-39.5 -63q-13 -70 64 -162zM481 130q-102 149 -163 226l-45 -30t-50 -35.5t-40.5 -34.5t-36.5 -44.5t-18 -49.5 q-11 -63 34.5 -97.5t118.5 -34.5q100 0 200 100z" />
<glyph unicode="'" horiz-adv-x="215" d="M175 516l31 68q-29 8 -23 40q3 19 17 31t32 12t28 -12t7 -31q-3 -14 -70 -108h-22z" />
<glyph unicode="(" horiz-adv-x="340" d="M373 674l26 -31q-95 -61 -153.5 -155.5t-77.5 -203.5q-20 -110 4.5 -206t99.5 -154l-36 -31q-80 52 -108.5 163t-7.5 228t87.5 227t165.5 163z" />
<glyph unicode=")" horiz-adv-x="340" d="M66 -107l-25 31q94 58 153 154t79 206q19 108 -6.5 203t-98.5 156l35 31q82 -53 110.5 -163t7.5 -227q-21 -118 -88.5 -228.5t-166.5 -162.5z" />
<glyph unicode="*" horiz-adv-x="439" d="M347 528l104 -67l-26 -30l-98 67l-20 -115h-39l20 116l-124 -68l-13 30l128 67l-104 68l24 29l100 -67l20 113h39l-20 -113l122 67l15 -29z" />
<glyph unicode="+" horiz-adv-x="616" d="M326 229h-206l8 44h206l36 205h43l-36 -205h207l-8 -44h-207l-36 -205h-43z" />
<glyph unicode="," horiz-adv-x="154" d="M37 -67l31 68q-14 4 -20.5 15t-3.5 26q3 18 17 30t32 12t28 -12t7 -30q-2 -13 -69 -109h-22z" />
<glyph unicode="-" horiz-adv-x="385" d="M363 273l-8 -44h-245l8 44h245z" />
<glyph unicode="." horiz-adv-x="150" d="M40 42q3 18 17 30t32 12t28 -12t7 -30t-17 -30t-32 -12t-28 12t-7 30z" />
<glyph unicode="/" horiz-adv-x="337" d="M26 -15h-39l438 683h39z" />
<glyph unicode="0" horiz-adv-x="679" d="M455 676q118 0 179.5 -91.5t33.5 -251.5t-122 -251t-212 -91q-119 0 -180.5 92t-33.5 250q28 159 122 251t213 92zM446 627q-96 0 -172.5 -78.5t-101.5 -215.5q-24 -136 25.5 -214.5t145.5 -78.5t172 78t100 215q12 53 6 105.5t-23.5 94.5t-57 68t-94.5 26z" />
<glyph unicode="1" horiz-adv-x="317" d="M165 0l108 616q-103 -42 -140 -59l8 49l149 61h44l-117 -667h-52z" />
<glyph unicode="2" horiz-adv-x="607" d="M168 537l10 57q103 80 233 82q98 2 161 -52t46 -150q-4 -25 -23 -54.5t-55.5 -64t-66.5 -61.5t-85 -68t-81 -59.5t-81 -57.5q-27 -19 -85 -61h404l-8 -48h-484l8 47l83 59q62 43 86.5 60t86.5 61.5t94 71.5t73 63.5t61 64.5t24 50q13 74 -38 113.5t-128 38.5 q-60 -1 -123 -24.5t-112 -67.5z" />
<glyph unicode="3" horiz-adv-x="571" d="M509 621h-350l8 46h419l-7 -40l-306 -225q59 10 111.5 2t90.5 -28t55.5 -65t5.5 -110q-18 -100 -109 -155t-196 -55q-95 0 -163 47l9 52q67 -52 162 -52q86 0 160 43.5t87 121.5q15 86 -30.5 127t-138.5 41q-60 0 -134 -18l6 35z" />
<glyph unicode="4" horiz-adv-x="617" d="M550 667h52l-84 -479h73l-8 -44h-73l-25 -144h-52l25 144h-388l8 45zM466 188l71 407l-399 -407h328z" />
<glyph unicode="5" horiz-adv-x="575" d="M172 667h419l-8 -46h-375l-41 -230q70 33 150 35q107 2 175.5 -54.5t50.5 -160.5q-18 -100 -110 -160t-197 -60q-95 0 -164 47l9 52q67 -52 163 -52q84 0 159.5 47t89.5 126q14 80 -44 128t-141 48q-87 0 -170 -46h-23z" />
<glyph unicode="6" horiz-adv-x="654" d="M651 609l-10 -54q-73 75 -190 75q-69 0 -132.5 -50t-101 -118t-44.5 -131q100 100 238 100q98 0 161.5 -60.5t46.5 -155.5q-17 -101 -100.5 -162t-187.5 -61q-70 0 -118.5 28.5t-69 75.5t-27 107.5t7.5 124.5q11 60 38.5 119.5t69 111.5t101 84.5t126.5 32.5 q116 0 192 -67zM340 40q83 0 149 47t80 128q14 77 -37 125.5t-132 48.5q-63 0 -125.5 -25t-107.5 -75q-7 -70 6 -124.5t55.5 -89.5t111.5 -35z" />
<glyph unicode="7" horiz-adv-x="562" d="M569 621h-390l8 46h443l-8 -44l-382 -623h-53z" />
<glyph unicode="8" horiz-adv-x="613" d="M92 196q12 67 66 115t130 66q-48 18 -72 54t-15 86q12 70 78.5 114.5t146.5 44.5q77 -2 128 -45t38 -117q-9 -51 -47.5 -86.5t-92.5 -50.5q71 -19 110 -65.5t27 -115.5q-14 -67 -60.5 -114.5t-105 -68.5t-123.5 -21q-100 0 -162 56t-46 148zM372 394q63 0 113 31t60 88 q9 53 -30 85.5t-98 32.5t-109 -33t-59 -85q-9 -54 27.5 -86.5t95.5 -32.5zM308 40q82 0 149.5 40.5t81.5 117.5q13 71 -40.5 114.5t-130.5 43.5q-80 0 -146.5 -43.5t-79.5 -114.5q-12 -72 37.5 -115t128.5 -43z" />
<glyph unicode="9" horiz-adv-x="655" d="M111 60l10 55q63 -77 185 -77q71 0 137.5 50t106 118t46.5 131q-100 -100 -239 -100q-98 0 -161.5 60.5t-46.5 155.5q18 101 102 162t187 61q70 0 118.5 -28.5t68.5 -75.5t26.5 -107.5t-7.5 -124.5q-14 -80 -59 -158t-122 -134t-165 -56q-120 0 -187 68zM429 628 q-83 0 -149.5 -47t-80.5 -128q-13 -77 38 -125.5t132 -48.5q64 0 126.5 25t105.5 75q12 109 -29 179t-143 70z" />
<glyph unicode=":" horiz-adv-x="150" d="M82 282q3 18 17.5 30t32.5 12t27.5 -12t6.5 -30t-17 -30t-32 -12t-28 12t-7 30zM40 42q3 18 17 30t32 12t28 -12t7 -30t-17 -30t-32 -12t-28 12t-7 30z" />
<glyph unicode=";" horiz-adv-x="150" d="M117 240q-18 0 -28 12t-7 30t17.5 30t32.5 12t27.5 -12t6.5 -30t-17 -30t-32 -12zM37 -67l31 68q-30 9 -24 41q3 18 17 30t32 12t28 -12t7 -30q-3 -17 -14 -26l-55 -83h-22z" />
<glyph unicode="&#x3c;" horiz-adv-x="493" d="M472 453l-8 -46l-301 -156l246 -157l-8 -45l-286 181l7 42z" />
<glyph unicode="=" horiz-adv-x="474" d="M130 342h334l-7 -39h-334zM108 216h334l-7 -40h-334z" />
<glyph unicode="&#x3e;" horiz-adv-x="493" d="M108 49l8 45l302 157l-247 156l8 46l286 -181l-7 -42z" />
<glyph unicode="?" horiz-adv-x="484" d="M132 551l9 52q100 77 206 74q85 -2 136 -55.5t37 -133.5q-6 -33 -36 -67t-68.5 -64.5t-77.5 -63.5t-68.5 -75.5t-35.5 -88.5h-42q8 51 37.5 97.5t67.5 79.5t75 62.5t65 59.5t33 58q11 63 -29 103.5t-107 41.5q-105 0 -202 -80zM156 42q3 18 17 30t32 12t28 -12t7 -30 t-17 -30t-32 -12t-28 12t-7 30z" />
<glyph unicode="@" horiz-adv-x="820" d="M575 14l-7 -39q-79 -40 -166 -40q-147 0 -233 99t-59 251q17 100 80.5 178.5t151.5 120t184 41.5q86 0 148.5 -25.5t95 -68t44 -93t3.5 -105.5q-15 -102 -74.5 -171t-122.5 -77q-38 -5 -60 11t-23 51q-55 -41 -118 -41q-70 0 -114 47t-31 123q13 74 74 121.5t131 47.5 q61 0 103 -40l6 32h34l-46 -256q-7 -37 5.5 -52.5t41.5 -12.5q51 10 97.5 67t59.5 141q8 50 -2.5 95.5t-39.5 84t-85.5 61t-133.5 22.5q-133 0 -240.5 -84t-130.5 -218q-24 -136 51.5 -225t208.5 -89q84 0 167 43zM538 186l32 177q-34 46 -95 46q-54 0 -101 -36.5t-58 -96.5 q-11 -62 23 -99t88 -37q62 0 111 46z" />
<glyph unicode="A" d="M547 0l-40 176h-330l-102 -176h-55l382 667h52l148 -667h-55zM499 220l-83 377l-217 -377h300z" />
<glyph unicode="B" horiz-adv-x="605" d="M187 667h264q81 0 131.5 -42.5t36.5 -121.5q-9 -52 -47.5 -92.5t-91.5 -56.5q62 -13 93 -60.5t19 -112.5q-15 -83 -80.5 -132t-148.5 -49h-293zM186 371h219q60 4 106.5 35.5t57.5 88.5q11 61 -29.5 93t-104.5 32h-205zM129 47h233q67 0 118.5 37.5t62.5 102.5 q13 70 -29.5 105.5t-116.5 35.5h-219z" />
<glyph unicode="C" horiz-adv-x="635" d="M575 89l-9 -54q-86 -44 -176 -44q-144 0 -228 100t-59 242t144.5 242.5t263.5 100.5q89 0 160 -44l-9 -53q-71 48 -160 48q-122 0 -223.5 -86t-123.5 -208q-21 -122 50.5 -207.5t193.5 -85.5q89 0 176 49z" />
<glyph unicode="D" horiz-adv-x="644" d="M187 667h197q140 0 221.5 -97.5t56.5 -236.5q-24 -138 -139.5 -235.5t-255.5 -97.5h-197zM130 47h138q121 0 221.5 83.5t121.5 202.5t-49.5 203t-192.5 84h-138z" />
<glyph unicode="E" horiz-adv-x="579" d="M583 369l-9 -49h-396l-49 -275h407l-7 -45h-459l117 667h459l-8 -47h-407l-44 -251h396z" />
<glyph unicode="F" horiz-adv-x="579" d="M582 369l-9 -49h-395l-56 -320h-52l117 667h459l-8 -47h-407l-44 -251h395z" />
<glyph unicode="G" horiz-adv-x="654" d="M675 632l-9 -53q-74 48 -164 48q-122 0 -223.5 -86t-123.5 -208q-21 -122 50.5 -207.5t193.5 -85.5q73 0 145 35l44 249h-221l7 44h269l-57 -324q-98 -53 -196 -53q-144 0 -228 100t-59 242t144.5 242.5t263.5 100.5q91 0 164 -44z" />
<glyph unicode="H" horiz-adv-x="621" d="M564 370l52 297h52l-117 -667h-52l56 320h-377l-56 -320h-52l117 667h52l-52 -297h377z" />
<glyph unicode="I" horiz-adv-x="191" d="M121 0h-51l117 667h51z" />
<glyph unicode="J" horiz-adv-x="485" d="M81 35l9 54q68 -49 153 -49q54 0 98 41.5t54 96.5l86 489h51l-86 -491q-13 -74 -73 -129.5t-135 -55.5q-90 0 -157 44z" />
<glyph unicode="K" horiz-adv-x="606" d="M174 300l425 367h68l-294 -258l199 -409h-62l-180 372l-168 -142l-40 -230h-52l117 667h52z" />
<glyph unicode="L" horiz-adv-x="544" d="M512 47l-8 -47h-434l117 667h52l-109 -620h382z" />
<glyph unicode="M" horiz-adv-x="753" d="M631 0l95 541l-330 -541h-39l-141 541l-95 -541h-51l117 667h40l161 -598l371 598h41l-117 -667h-52z" />
<glyph unicode="N" horiz-adv-x="642" d="M536 92l101 575h52l-117 -667h-43l-307 575l-101 -575h-51l117 667h42z" />
<glyph unicode="O" horiz-adv-x="792" d="M516 676q143 0 226 -100.5t58 -242.5t-143.5 -242t-261.5 -100q-145 0 -228.5 100t-58.5 242q26 143 144.5 243t263.5 100zM507 626q-122 0 -223.5 -85.5t-123.5 -207.5q-21 -122 50.5 -207.5t193.5 -85.5t222.5 86t121.5 207q22 121 -48.5 207t-192.5 86z" />
<glyph unicode="P" horiz-adv-x="584" d="M187 667h265q86 0 133 -52.5t32 -141.5q-15 -86 -82 -139t-151 -53h-213l-49 -281h-52zM179 326h202q67 0 119.5 39.5t64.5 105.5q12 69 -25.5 108.5t-106.5 39.5h-202z" />
<glyph unicode="Q" horiz-adv-x="808" d="M686 -71l-94 121q-92 -59 -197 -59q-145 0 -228.5 100t-58.5 242q26 143 144.5 243t263.5 100q143 0 226 -100.5t58 -242.5q-13 -76 -57 -143.5t-108 -115.5l111 -145h-60zM507 626q-122 0 -223.5 -85.5t-123.5 -207.5q-21 -122 50.5 -207.5t193.5 -85.5q121 0 222 86 t122 207q22 121 -49 207t-192 86z" />
<glyph unicode="R" horiz-adv-x="588" d="M187 667h265q86 0 133 -53.5t32 -142.5q-14 -75 -70.5 -125.5t-131.5 -60.5l123 -285h-58l-120 281h-189l-49 -281h-52zM179 326h202q67 0 119.5 39.5t64.5 105.5q12 69 -25.5 108.5t-106.5 39.5h-202z" />
<glyph unicode="S" horiz-adv-x="602" d="M85 75l10 57q36 -45 97 -69.5t127 -24.5q48 0 93 14t81 48.5t45 83.5q13 69 -75 106q-29 12 -80 24t-89 22.5t-75.5 28t-54 48.5t-8.5 76q10 60 53.5 103.5t99 63.5t115.5 20q132 0 207 -81l-10 -57q-34 43 -90 67t-116 24q-74 0 -136 -36t-75 -106q-5 -27 4.5 -47 t33.5 -33.5t47.5 -21.5t61.5 -17q117 -26 152 -41q104 -44 86 -145q-11 -64 -57 -108.5t-103.5 -63.5t-120.5 -19q-64 0 -124 21.5t-99 62.5z" />
<glyph unicode="T" horiz-adv-x="547" d="M619 667l-8 -48h-203l-109 -619h-52l109 619h-202l8 48h457z" />
<glyph unicode="U" horiz-adv-x="643" d="M690 667l-79 -447q-18 -105 -102 -167t-189 -62t-167.5 62t-44.5 167l79 447h52l-79 -447q-14 -83 35.5 -131.5t133.5 -48.5t150 48t80 132l79 447h52z" />
<glyph unicode="V" horiz-adv-x="627" d="M327 78l340 589h58l-387 -667h-51l-150 667h57z" />
<glyph unicode="W" horiz-adv-x="928" d="M602 667l97 -579q45 96 134.5 289.5t134.5 289.5h58l-315 -667h-47l-98 576l-298 -576h-46l-85 667h58l69 -580l296 580h42z" />
<glyph unicode="X" horiz-adv-x="573" d="M337 292l-257 -292h-60l294 335l-174 332h60l152 -288l255 288h60l-291 -332l177 -335h-60z" />
<glyph unicode="Y" horiz-adv-x="550" d="M137 667h56l125 -412l273 412h56l-313 -468l-35 -199h-52l34 198z" />
<glyph unicode="Z" horiz-adv-x="639" d="M143 48h434l-8 -48h-499l8 47l537 572h-436l8 48h499l-8 -47z" />
<glyph unicode="[" horiz-adv-x="303" d="M79 -114l138 781h134l-7 -40h-87l-124 -703h87l-7 -38h-134z" />
<glyph unicode="\" horiz-adv-x="337" d="M344 -15h-39l-198 683h39z" />
<glyph unicode="]" horiz-adv-x="303" d="M143 -76l124 703h-87l7 40h134l-138 -781h-134l7 38h87z" />
<glyph unicode="^" horiz-adv-x="532" d="M377 634l-153 -168h-42l186 206h32l114 -206h-43z" />
<glyph unicode="_" horiz-adv-x="561" d="M494 12l-7 -36h-422l7 36h422z" />
<glyph unicode="`" horiz-adv-x="296" d="M217 667h47l27 -124h-33z" />
<glyph unicode="a" horiz-adv-x="532" d="M411 0l9 54q-79 -63 -167 -63q-54 0 -99 16t-73.5 55t-18.5 96q12 65 65 105.5t118 40.5h217q10 83 -29.5 119.5t-129.5 36.5q-91 -4 -154 -43l8 46q72 38 163 38q227 0 190 -214q-20 -112 -49 -287h-50zM457 265h-204q-53 0 -93.5 -28.5t-48.5 -75.5q-8 -45 15.5 -75 t59 -41.5t78.5 -11.5q91 0 163 63z" />
<glyph unicode="b" horiz-adv-x="584" d="M227 666l-42 -236q85 71 178 71q110 0 174.5 -72.5t45.5 -182.5t-109.5 -182.5t-200.5 -72.5q-95 0 -154 62l-9 -53h-50l117 666h50zM178 386l-52 -290q57 -63 154 -63q89 0 163 60.5t90 152.5t-36.5 152.5t-141.5 60.5q-98 0 -177 -73z" />
<glyph unicode="c" horiz-adv-x="559" d="M567 447l-8 -50q-66 60 -159 60t-170 -59.5t-93 -151.5t40 -151.5t149 -59.5q95 0 179 60l-9 -50q-85 -54 -178 -54q-113 0 -181.5 72t-48.5 183t113.5 183t206.5 72q93 0 159 -54z" />
<glyph unicode="d" horiz-adv-x="584" d="M642 666l-117 -666h-51l9 53q-81 -62 -175 -62q-110 0 -174.5 72.5t-45.5 182.5t109.5 182.5t200.5 72.5q94 0 151 -71l42 236h51zM490 96l52 290q-55 73 -152 73q-90 0 -163.5 -60.5t-89.5 -152.5t36.5 -152.5t141.5 -60.5q99 0 175 63z" />
<glyph unicode="e" horiz-adv-x="599" d="M590 238h-455q-14 -89 39.5 -146.5t148.5 -57.5q123 0 223 73l-8 -45q-43 -32 -104.5 -51.5t-121.5 -19.5q-116 0 -179.5 74t-43.5 188q20 104 105.5 176t191.5 72q107 0 166.5 -80.5t37.5 -182.5zM144 277h405q9 77 -40.5 129.5t-130.5 52.5q-82 0 -148.5 -51.5 t-85.5 -130.5z" />
<glyph unicode="f" horiz-adv-x="279" d="M169 492l9 48q23 135 152 135q20 0 44 -3l-7 -40q-32 4 -44 4q-77 0 -94 -97l-9 -47h125l-7 -40h-125l-79 -452h-51l79 452h-63l7 40h63z" />
<glyph unicode="g" horiz-adv-x="585" d="M612 492l-88 -499q-14 -81 -59 -134.5t-100 -73.5t-118 -19q-60 -1 -114.5 18.5t-91.5 56.5l10 52q33 -40 88 -62t116 -22q79 -1 140.5 43.5t78.5 141.5q3 18 4.5 29.5t5.5 29.5q-79 -62 -174 -62q-109 1 -175 73t-46 182q18 110 110 182t201 73q97 0 150 -71l11 62h51z M491 96l52 290q-26 36 -66 55t-85 18q-88 1 -163 -60.5t-90 -152.5q-17 -92 36 -152.5t142 -60.5q97 0 174 63z" />
<glyph unicode="h" horiz-adv-x="568" d="M227 666l-42 -236q85 71 178 71q110 0 163.5 -72.5t34.5 -182.5l-43 -246h-51l43 246q16 92 -25.5 152.5t-129.5 60.5q-98 0 -177 -73l-68 -386h-50l117 666h50z" />
<glyph unicode="i" horiz-adv-x="190" d="M164 640q4 18 18.5 30.5t31.5 12.5q18 0 28.5 -12.5t6.5 -30.5q-3 -17 -17.5 -29.5t-32.5 -12.5q-17 0 -27.5 12.5t-7.5 29.5zM70 0h50l86 492h-50z" />
<glyph unicode="j" horiz-adv-x="217" d="M192 640q4 18 18 30.5t32 12.5t28 -12.5t6 -30.5q-3 -17 -17 -29.5t-32 -12.5t-28 12.5t-7 29.5zM183 492l-96 -547q-17 -98 -94 -98q-13 0 -45 4l-7 -40q23 -3 45 -3q127 0 150 135l97 549h-50z" />
<glyph unicode="k" horiz-adv-x="566" d="M236 666l-77 -434l371 260h71l-269 -191l199 -301h-61l-181 270l-140 -98l-30 -172h-49l117 666h49z" />
<glyph unicode="l" horiz-adv-x="190" d="M120 0h-50l117 666h50z" />
<glyph unicode="m" horiz-adv-x="913" d="M201 490l-11 -59q84 70 174 70q120 0 151 -103q97 103 222 103q98 0 138.5 -58.5t23.5 -152.5l-51 -290h-50l49 281q14 79 -14.5 128.5t-103.5 49.5q-111 0 -194 -94l-64 -365h-51l57 325q9 51 -19 92.5t-102 41.5q-95 0 -173 -73l-68 -386h-50l86 490h50z" />
<glyph unicode="n" horiz-adv-x="588" d="M201 490l-11 -60q85 71 178 71q110 0 163.5 -72.5t34.5 -182.5l-43 -246h-51l43 246q16 93 -25 153t-130 60q-98 0 -177 -73l-68 -386h-50l86 490h50z" />
<glyph unicode="o" horiz-adv-x="611" d="M393 502q109 0 172 -75t44 -181t-108 -180.5t-198 -74.5q-108 0 -171 74.5t-44 180.5t108 181t197 75zM385 456q-86 0 -159 -61.5t-88 -148.5q-16 -87 35 -148.5t138 -61.5t159.5 61.5t88.5 148.5q15 87 -36 148.5t-138 61.5z" />
<glyph unicode="p" horiz-adv-x="585" d="M146 492h50l-11 -62q82 71 177 71q109 -1 175 -73t46 -182q-19 -110 -110.5 -182t-200.5 -73q-97 0 -153 62q-9 -50 -21.5 -118t-21.5 -118h-49zM178 386l-52 -290q57 -63 153 -63q89 0 163.5 60.5t89.5 152.5q18 91 -35.5 152.5t-142.5 60.5q-93 2 -176 -73z" />
<glyph unicode="q" horiz-adv-x="585" d="M493 -183h-50q9 51 20.5 118t20.5 118q-79 -62 -174 -62q-109 1 -175 73t-46 182q18 110 110 182t201 73q97 0 150 -71l11 62h51zM491 96l52 290q-26 36 -66 55t-85 18q-88 1 -163 -60.5t-90 -152.5q-17 -92 36 -152.5t142 -60.5q97 0 174 63z" />
<glyph unicode="r" horiz-adv-x="362" d="M201 492l-10 -58q83 67 177 67q27 0 51 -4l-7 -42q-25 4 -53 4q-96 0 -176 -69l-68 -390h-50l86 492h50z" />
<glyph unicode="s" horiz-adv-x="496" d="M71 50l9 51q29 -32 76.5 -49.5t98.5 -17.5q58 0 107.5 25.5t59.5 78.5q6 31 -14 49t-60 30q-18 5 -50.5 12t-55.5 11.5t-49.5 15t-42 23t-24 34t-3.5 49.5q13 68 75.5 103.5t137.5 35.5q102 0 166 -58l-9 -51q-29 31 -74 48.5t-92 17.5q-54 0 -101.5 -25.5t-56.5 -75.5 q-8 -48 59 -71q20 -7 52.5 -14.5t59 -12.5t55 -15.5t47 -23t28 -35t4.5 -52.5q-12 -71 -79.5 -106.5t-146.5 -35.5q-112 0 -177 59z" />
<glyph unicode="t" horiz-adv-x="304" d="M179 492l31 174h51l-31 -174h125l-7 -40h-125l-56 -317q-17 -98 60 -98q12 0 46 4l-7 -40q-27 -3 -50 -3q-124 0 -100 137l56 317h-63l7 40h63z" />
<glyph unicode="u" horiz-adv-x="562" d="M447 0l10 60q-85 -71 -169 -71q-108 0 -154.5 70.5t-26.5 180.5l44 250h50l-44 -250q-16 -92 18 -150t120 -58q90 0 170 72l68 386h50l-86 -490h-50z" />
<glyph unicode="v" horiz-adv-x="494" d="M106 492h54l98 -428l248 428h54l-287 -492h-51z" />
<glyph unicode="w" horiz-adv-x="755" d="M450 411l-214 -411h-47l-83 492h51l72 -422l215 422h39l74 -421l212 421h53l-250 -492h-47z" />
<glyph unicode="x" horiz-adv-x="460" d="M243 246l-137 246h59l115 -205q27 30 58.5 64.5t69.5 76t59 64.5h59l-224 -246l138 -246h-59l-115 205q-21 -23 -59.5 -64.5t-69.5 -76t-58 -64.5h-59z" />
<glyph unicode="y" horiz-adv-x="495" d="M160 492l98 -426l249 426h54l-277 -474l-31 -54q-37 -65 -89 -111t-109 -45q-21 0 -43 3l8 45q21 -3 40 -3q83 0 162 149l-116 490h54z" />
<glyph unicode="z" horiz-adv-x="511" d="M529 447l-391 -401h321l-8 -46h-391q0 3 9 46l391 401h-321l8 45h390z" />
<glyph unicode="{" horiz-adv-x="399" d="M448 670l-7 -40q-75 0 -91 -74q-2 -9 -7 -41.5t-8.5 -48t-11 -45.5t-16 -47t-21.5 -38.5t-31 -35t-40 -21.5q17 -7 28.5 -20t18.5 -26t9.5 -34t3 -36t-2.5 -41.5t-5.5 -40t-7.5 -41.5t-7 -37q-3 -23 2 -39.5t14.5 -23t20 -10.5t18.5 -3t10 0l-7 -38q-8 -1 -18.5 0 t-29 6.5t-31 16t-20.5 33.5t-3 55q2 18 7 50.5t8.5 55.5t3.5 51.5t-7.5 47.5t-26 34.5t-48.5 20.5l7 40q32 4 56 19.5t37.5 34.5t24.5 48.5t15.5 52t10.5 55.5t10 50q8 39 28.5 64t46 33.5t40.5 11t27 1.5z" />
<glyph unicode="|" horiz-adv-x="242" d="M82 -98l144 818h42l-144 -818h-42z" />
<glyph unicode="}" horiz-adv-x="399" d="M181 630l7 40q8 1 18.5 0t28.5 -6.5t30.5 -16t20.5 -33t3 -54.5q-2 -18 -9 -60t-9 -68.5t1.5 -58t23.5 -50t56 -23.5l-7 -40q-32 -5 -56 -20.5t-37.5 -34.5t-24 -48t-15 -51t-11 -55.5t-10.5 -50.5q-8 -39 -28.5 -64.5t-46 -34t-40.5 -11t-26 -1.5l7 38q74 0 90 76 q2 10 6.5 37.5t7 41t8.5 39.5t11.5 41t16 36t22 34.5t28 26.5t36.5 20q-15 6 -26.5 16t-18 24t-11 27.5t-4.5 33.5v34.5t3.5 37.5t5.5 35.5t6.5 36t6.5 32.5q3 22 -2.5 38t-13.5 22.5t-20.5 10t-17.5 3.5h-10z" />
<glyph unicode="~" horiz-adv-x="523" d="M505 300l-9 -51q-36 -30 -76 -32.5t-76.5 11t-73.5 26t-79.5 8t-81.5 -37.5l9 49q41 29 86 31.5t82.5 -11t74 -26t74 -7t70.5 39.5z" />
<glyph unicode="&#xa1;" horiz-adv-x="243" d="M166 495q3 18 17.5 30t31.5 12q18 0 28.5 -12t7.5 -30t-18 -30t-33 -12q-17 0 -27 12t-7 30zM175 408h35l-79 -538h-64z" />
<glyph unicode="&#xa2;" horiz-adv-x="553" d="M138 -66l52 93q-54 33 -79 90t-13 129q20 111 113.5 183t206.5 72q19 0 34 -3l47 82h38l-50 -90q53 -13 90 -43l-8 -48q-42 41 -105 53l-221 -399q29 -13 61 -17q12 -2 39 -2q92 2 172 59l-9 -48q-85 -54 -178 -54q-58 0 -107 22l-44 -79h-39zM215 70l210 380 q-14 6 -21 8q-92 -2 -167 -61.5t-91 -150.5q-10 -57 8.5 -102.5t60.5 -73.5z" />
<glyph unicode="&#xa3;" horiz-adv-x="651" d="M199 350l22 124q14 83 89 137.5t160 56.5q107 0 178 -76l-9 -49q-30 38 -77 59.5t-97 20.5q-64 0 -123 -39.5t-72 -109.5l-22 -124h235l-6 -34h-235l-41 -233q35 6 79.5 -5t83 -25t78.5 -23t78.5 2.5t69.5 49.5l-10 -54q-39 -36 -83 -45t-81.5 3t-81 26.5t-82.5 25.5 t-86 1t-90 -48l9 51q31 24 66 35l42 239h-68l6 34h68z" />
<glyph unicode="&#xa4;" horiz-adv-x="559" d="M564 425l-88 -76q28 -45 18 -104q-10 -56 -55 -104l62 -75l-35 -31l-63 76q-51 -36 -110 -36t-98 36l-88 -76l-26 31l89 75q-28 48 -18 104q10 59 55 104l-63 76l37 30l62 -75q52 36 110 36q59 0 98 -36l89 75zM194 245q-9 -51 22.5 -90t83.5 -39q51 0 96.5 38t55.5 91 q9 52 -22 90.5t-85 38.5q-52 0 -96 -38t-55 -91z" />
<glyph unicode="&#xa5;" horiz-adv-x="567" d="M273 137l4 26l3 30h-148l6 34h138l-137 440h56l125 -412l273 412h56l-295 -440h136l-6 -34h-146l-9 -30l-4 -26h149l-6 -34h-149l-18 -103h-52l18 103h-151l6 34h151z" />
<glyph unicode="&#xa6;" horiz-adv-x="244" d="M82 -98l64 364h42l-64 -364h-42zM162 356l64 364h42l-64 -364h-42z" />
<glyph unicode="&#xa7;" horiz-adv-x="524" d="M67 -30l9 49q56 -63 158 -65q160 -2 174 88q5 30 -13 48t-40 23.5t-71 13.5q-8 1 -12 2q-30 5 -50.5 9.5t-45 13.5t-38.5 21t-21.5 32t-2.5 46q15 88 122 114q-46 15 -68 39t-14 67q12 68 75 103.5t138 35.5q104 0 165 -58l-9 -49q-54 61 -156 65q-57 1 -108 -25t-60 -76 q-4 -24 5 -41t34 -28t45 -16.5t59 -12.5q37 -7 61 -14.5t48 -21.5t33.5 -36.5t3.5 -54.5q-8 -47 -34 -70t-70 -32q44 -12 63 -35t11 -67q-8 -49 -46.5 -79t-81 -39t-94.5 -9q-104 0 -169 59zM442 246q8 48 -32 72.5t-104 24.5q-135 0 -152 -96q-4 -23 5 -39.5t29.5 -25.5 t44.5 -13t57 -6q64 -3 103 14t49 69z" />
<glyph unicode="&#xa8;" horiz-adv-x="270" d="M146 587q3 16 15.5 26.5t27.5 10.5q16 0 24.5 -10.5t5.5 -26.5q-3 -15 -15 -25.5t-28 -10.5q-15 0 -24 10.5t-6 25.5zM257 587q3 16 15.5 26.5t28.5 10.5q15 0 23.5 -10.5t5.5 -26.5q-3 -15 -15 -25.5t-27 -10.5q-16 0 -25 10.5t-6 25.5z" />
<glyph unicode="&#xa9;" horiz-adv-x="832" d="M536 676q143 0 226 -100.5t58 -242.5t-143.5 -242t-261.5 -100q-144 0 -228 100t-59 242t144.5 242.5t263.5 100.5zM530 642q-129 0 -237.5 -90.5t-130.5 -218.5t54 -218.5t205 -90.5q130 0 236 90.5t129 218.5t-51.5 218.5t-204.5 90.5zM554 219l-6 -35q-44 -22 -87 -22 q-72 0 -114 50t-30 121q13 71 72.5 121.5t132.5 50.5q43 0 79 -22l-7 -35q-33 24 -75 24q-62 0 -109.5 -39t-57.5 -100q-10 -60 22.5 -99t93.5 -39q44 0 86 24z" />
<glyph unicode="&#xaa;" horiz-adv-x="336" d="M316 363l5 31q-44 -36 -97 -36q-52 0 -88 26t-27 76q7 39 39 64t72 25h128q6 48 -17.5 68.5t-76.5 20.5q-51 -2 -94 -27l6 32q44 24 99 24q138 0 115 -130l-14 -83q-4 -18 -9 -52.5t-6 -38.5h-35zM344 525h-119q-30 0 -54.5 -18t-28.5 -46q-7 -38 21.5 -56t68.5 -18 q51 0 94 36z" />
<glyph unicode="&#xab;" horiz-adv-x="528" d="M358 487l-9 -54l-194 -182l130 -182l-10 -53l-160 216l7 38zM513 487l-9 -54l-194 -182l130 -182l-10 -53l-160 216l7 38z" />
<glyph unicode="&#xac;" horiz-adv-x="498" d="M425 229h-315l8 44h358l-29 -160h-43z" />
<glyph unicode="&#xad;" horiz-adv-x="385" d="M363 273l-8 -44h-245l8 44h245z" />
<glyph unicode="&#xae;" horiz-adv-x="832" d="M536 676q143 0 226 -100.5t58 -242.5t-143.5 -242t-261.5 -100q-144 0 -228 100t-59 242t144.5 242.5t263.5 100.5zM530 642q-129 0 -237.5 -90.5t-130.5 -218.5t54 -218.5t205 -90.5q130 0 236 90.5t129 218.5t-51.5 218.5t-204.5 90.5zM393 491h138q43 0 66.5 -26.5 t15.5 -70.5q-7 -38 -35.5 -63.5t-67.5 -30.5l62 -142h-32l-60 141h-91l-25 -141h-30zM394 324h94q34 0 61 18.5t33 51.5q6 34 -14 52.5t-56 18.5h-94z" />
<glyph unicode="&#xaf;" horiz-adv-x="445" d="M450 599l-6 -33h-245l6 33h245z" />
<glyph unicode="&#xb0;" horiz-adv-x="388" d="M415 555q-9 -52 -52 -88t-94 -36q-52 0 -81.5 36t-20.5 88q9 51 51.5 87.5t94.5 36.5q51 0 81 -36.5t21 -87.5zM384 555q7 38 -16 65.5t-60 27.5q-39 0 -70.5 -27.5t-38.5 -65.5q-7 -40 14.5 -66t61.5 -26q38 0 70 26.5t39 65.5z" />
<glyph unicode="&#xb1;" horiz-adv-x="525" d="M283 248h-206l8 44h206l30 170h44l-30 -170h207l-8 -44h-207l-30 -169h-44zM86 36h365l-6 -35h-365z" />
<glyph unicode="&#xb2;" horiz-adv-x="380" d="M173 626l7 41q62 48 140 50q59 1 97 -32t27 -91q-11 -64 -232 -219l-48 -32h238l-6 -33h-292l6 31q4 4 49 35q9 6 39 27.5t46.5 33.5t44.5 32.5t45 35.5t35.5 32.5t28.5 32t12 25.5q8 43 -21.5 66t-73.5 23q-80 -2 -142 -58z" />
<glyph unicode="&#xb3;" horiz-adv-x="372" d="M364 685h-204l6 32h254l-5 -27l-175 -129q28 2 40 1q58 -2 89.5 -31.5t20.5 -92.5q-11 -60 -66.5 -93.5t-119.5 -33.5q-57 0 -98 28l7 37q44 -33 97 -33q51 0 94 25t51 71q9 50 -18 73.5t-82 23.5q-37 0 -81 -12l4 25z" />
<glyph unicode="&#xb4;" horiz-adv-x="296" d="M195 543l70 124h48l-85 -124h-33z" />
<glyph unicode="&#xb5;" horiz-adv-x="612" d="M225 492l-44 -252q-13 -76 7 -129.5t75 -71.5q33 -9 70 -5q83 4 158 70l68 388h49l-86 -492h-49l10 62q-84 -73 -170 -73q-128 0 -157 111l-45 -258h-49l114 650h49z" />
<glyph unicode="&#xb6;" horiz-adv-x="685" d="M216 -109l85 479q-61 0 -96 43t-24 106q11 61 61 104.5t111 43.5h359l-7 -41h-93l-130 -735h-48l130 735h-171l-130 -735h-47z" />
<glyph unicode="&#xb7;" horiz-adv-x="150" d="M77 250q3 19 17 31t32 12t28 -12t7 -31q-3 -17 -17.5 -29t-32.5 -12t-27.5 12t-6.5 29z" />
<glyph unicode="&#xb8;" horiz-adv-x="237" d="M140 13l-50 -56q36 8 64 -6.5t22 -48.5q-5 -30 -33 -47t-62 -17q-35 0 -64 16l4 24q26 -17 64 -17q27 0 44 12t19 30q4 20 -13.5 30t-41 9t-36.5 -11l4 20l56 62h23z" />
<glyph unicode="&#xb9;" horiz-adv-x="228" d="M138 646l7 35l89 36h30l-71 -401h-36l64 364z" />
<glyph unicode="&#xba;" horiz-adv-x="455" d="M342 656q65 0 103.5 -45t27.5 -109t-65.5 -109.5t-119.5 -45.5q-66 0 -103.5 45t-26.5 110q11 64 64.5 109t119.5 45zM337 625q-51 0 -93.5 -36t-51.5 -87t20.5 -87.5t80.5 -36.5t94 36.5t52 87.5t-21 87t-81 36z" />
<glyph unicode="&#xbb;" horiz-adv-x="528" d="M102 16l10 53l194 182l-130 182l9 54l160 -217l-7 -38zM257 16l10 53l194 182l-130 182l9 54l160 -217l-7 -38z" />
<glyph unicode="&#xbc;" horiz-adv-x="675" d="M130 596l6 35l89 36h30l-71 -401h-36l65 364zM111 0h-40l581 667h39zM619 401h33l-50 -284h43l-5 -31h-43l-15 -86h-36l15 86h-230l5 30zM378 117h188l41 233z" />
<glyph unicode="&#xbd;" horiz-adv-x="738" d="M93 0h-40l581 667h39zM130 596l6 35l89 36h30l-71 -401h-36l65 364zM476 316l7 41q63 48 140 50q59 1 97 -32t28 -91q-12 -65 -233 -219l-47 -32h237l-5 -33h-292l5 31q9 7 100.5 71t143.5 109t57 74q8 43 -21.5 66t-74.5 23q-78 0 -142 -58z" />
<glyph unicode="&#xbe;" horiz-adv-x="788" d="M355 635h-204l6 32h254l-5 -27l-174 -129q27 2 39 1q58 -2 89.5 -31.5t20.5 -92.5q-11 -60 -66 -93.5t-119 -33.5q-58 0 -99 28l7 37q44 -33 97 -33q51 0 94 25t51 71q9 50 -18 73.5t-82 23.5q-38 0 -81 -12l4 25zM208 0h-40l581 667h39zM732 401h34l-50 -284h42l-6 -32 h-42l-14 -85h-37l14 85h-230l6 31zM491 117h188l41 233z" />
<glyph unicode="&#xbf;" horiz-adv-x="484" d="M422 496q-3 -18 -17.5 -30.5t-31.5 -12.5q-18 0 -28 12.5t-7 30.5t17.5 30t32.5 12q17 0 27 -12.5t7 -29.5zM437 -66l9 53q-98 -81 -202 -81q-67 2 -107 42.5t-29 103.5q5 27 32.5 57t65 59.5t75 63t67.5 79.5t38 98h-42q-6 -46 -35.5 -89t-68.5 -75.5t-77.5 -63 t-68.5 -64.5t-36 -67q-14 -80 37 -133.5t137 -55.5q107 -3 205 73z" />
<glyph unicode="&#xc0;" d="M425 837l26 -124h-33l-41 124h48zM547 0l-40 176h-330l-102 -176h-55l382 667h52l148 -667h-55zM499 220l-83 377l-217 -377h300z" />
<glyph unicode="&#xc1;" d="M420 715l69 124h48l-84 -124h-33zM402 667l-382 -667h55l102 176h330l40 -176h55l-148 667h-52zM499 220h-300l217 377z" />
<glyph unicode="&#xc2;" d="M443 839h32l69 -124h-40l-50 94l-82 -94h-40zM402 667l-382 -667h55l102 176h330l40 -176h55l-148 667h-52zM499 220h-300l217 377z" />
<glyph unicode="&#xc3;" d="M560 788l-7 -45q-26 -23 -55 -20t-51.5 18t-53.5 16.5t-62 -24.5l7 41q24 18 51 18.5t49.5 -9t44 -17.5t41.5 -4.5t36 26.5zM547 0l-40 176h-330l-102 -176h-55l382 667h52l148 -667h-55zM499 220l-83 377l-217 -377h300z" />
<glyph unicode="&#xc4;" d="M353 767q2 16 14.5 26.5t28.5 10.5t24 -10.5t6 -26.5q-3 -15 -15 -25.5t-28 -10.5t-24.5 10.5t-5.5 25.5zM465 767q2 16 14 26.5t28 10.5t24.5 -10.5t6.5 -26.5q-3 -15 -15.5 -25.5t-28.5 -10.5t-24 10.5t-5 25.5zM402 667l-382 -667h55l102 176h330l40 -176h55l-148 667 h-52zM499 220h-300l217 377z" />
<glyph unicode="&#xc5;" d="M462 867q34 0 53.5 -24t13.5 -58t-33.5 -58t-62.5 -24t-54 24t-13 58t34 58t62 24zM457 838q-22 0 -40 -15.5t-22 -37.5q-4 -21 9 -37t35 -16t40 16t22 37q2 22 -10.5 37.5t-33.5 15.5zM547 0l-40 176h-330l-102 -176h-55l382 667h52l148 -667h-55zM499 220l-83 377 l-217 -377h300z" />
<glyph unicode="&#xc6;" horiz-adv-x="1058" d="M1052 320h-395l-49 -275h407l-7 -45h-459l31 176h-327q-28 -29 -85 -88t-86 -88h-62q646 665 646 667h459l-8 -47h-406l-45 -251h395zM587 220l65 367l-362 -367h297z" />
<glyph unicode="&#xc7;" horiz-adv-x="635" d="M401 -9l-30 -34q36 8 64 -6.5t22 -48.5q-5 -30 -33 -47t-62 -17q-35 0 -64 16l4 24q26 -17 64 -17q27 0 44 12.5t19 29.5q4 20 -13.5 30t-41 9t-36.5 -11l4 20l35 41q-139 5 -218.5 103.5t-55.5 237.5q25 142 144.5 242.5t263.5 100.5q89 0 160 -44l-9 -53 q-69 48 -160 48q-122 0 -223.5 -86t-123.5 -208q-21 -122 50.5 -207.5t193.5 -85.5q89 0 176 49l-9 -54q-82 -41 -165 -44z" />
<glyph unicode="&#xc8;" horiz-adv-x="579" d="M413 839l28 -124h-33l-42 124h47zM583 369l-9 -49h-396l-49 -275h407l-7 -45h-459l117 667h459l-8 -47h-407l-44 -251h396z" />
<glyph unicode="&#xc9;" horiz-adv-x="579" d="M394 715l70 124h47l-84 -124h-33zM638 620l8 47h-459l-117 -667h459l7 45h-407l49 275h395l9 49h-395l44 251h407z" />
<glyph unicode="&#xca;" horiz-adv-x="579" d="M440 839h33l69 -124h-41l-49 94l-82 -94h-41zM638 620l8 47h-459l-117 -667h459l7 45h-407l49 275h396l9 49h-396l44 251h407z" />
<glyph unicode="&#xcb;" horiz-adv-x="579" d="M349 767q2 16 14.5 26.5t28.5 10.5q15 0 23.5 -10.5t6.5 -26.5q-3 -16 -15.5 -26t-27.5 -10q-16 0 -24.5 10t-5.5 26zM460 767q2 16 14.5 26.5t28.5 10.5q15 0 23.5 -10.5t6.5 -26.5q-3 -16 -15.5 -26t-27.5 -10q-16 0 -24.5 10t-5.5 26zM638 620l8 47h-459l-117 -667 h459l7 45h-407l49 275h396l9 49h-396l44 251h407z" />
<glyph unicode="&#xcc;" horiz-adv-x="191" d="M212 839l27 -124h-33l-42 124h48zM121 0h-51l117 667h51z" />
<glyph unicode="&#xcd;" horiz-adv-x="191" d="M204 715l69 124h48l-84 -124h-33zM70 0h51l117 667h-51z" />
<glyph unicode="&#xce;" horiz-adv-x="191" d="M227 839h32l69 -124h-40l-50 94l-82 -94h-40zM70 0h51l117 667h-51z" />
<glyph unicode="&#xcf;" horiz-adv-x="191" d="M139 767q2 16 14.5 26.5t27.5 10.5q16 0 24.5 -10.5t6.5 -26.5q-3 -15 -15.5 -25.5t-28.5 -10.5q-15 0 -23.5 10.5t-5.5 25.5zM250 767q2 16 14.5 26.5t27.5 10.5q16 0 24.5 -10.5t6.5 -26.5q-3 -15 -15.5 -25.5t-28.5 -10.5q-15 0 -23.5 10.5t-5.5 25.5zM70 0h51 l117 667h-51z" />
<glyph unicode="&#xd0;" horiz-adv-x="644" d="M187 667h197q140 0 221.5 -97.5t56.5 -236.5q-24 -138 -139.5 -235.5t-255.5 -97.5h-197l54 309h-25l8 44h25zM184 353h168l-8 -44h-168l-46 -262h138q121 0 221.5 83.5t121.5 202.5t-49.5 203t-192.5 84h-138z" />
<glyph unicode="&#xd1;" horiz-adv-x="642" d="M574 788l-7 -45q-26 -23 -55 -20t-51.5 18t-54 16.5t-62.5 -24.5l7 41q24 18 51 18.5t49.5 -9t44 -17.5t42 -4.5t36.5 26.5zM536 92l101 575h52l-117 -667h-43l-307 575l-101 -575h-51l117 667h42z" />
<glyph unicode="&#xd2;" horiz-adv-x="792" d="M516 839l28 -124h-33l-42 124h47zM516 676q143 0 226 -100.5t58 -242.5t-143.5 -242t-261.5 -100q-145 0 -228.5 100t-58.5 242q26 143 144.5 243t263.5 100zM507 626q-122 0 -223.5 -85.5t-123.5 -207.5q-21 -122 50.5 -207.5t193.5 -85.5t222.5 86t121.5 207 q22 121 -48.5 207t-192.5 86z" />
<glyph unicode="&#xd3;" horiz-adv-x="792" d="M498 715l70 124h47l-84 -124h-33zM516 676q-145 0 -263.5 -100t-144.5 -243q-25 -142 58.5 -242t228.5 -100q143 0 261.5 100t143.5 242t-58 242.5t-226 100.5zM507 626q122 0 192.5 -86t48.5 -207q-21 -121 -121.5 -207t-222.5 -86t-193.5 85.5t-50.5 207.5 q22 122 123.5 207.5t223.5 85.5z" />
<glyph unicode="&#xd4;" horiz-adv-x="792" d="M527 839h33l69 -124h-41l-49 94l-82 -94h-41zM516 676q-145 0 -263.5 -100t-144.5 -243q-25 -142 58.5 -242t228.5 -100q143 0 261.5 100t143.5 242t-58 242.5t-226 100.5zM507 626q122 0 192.5 -86t48.5 -207q-21 -121 -121.5 -207t-222.5 -86t-193.5 85.5t-50.5 207.5 q22 122 123.5 207.5t223.5 85.5z" />
<glyph unicode="&#xd5;" horiz-adv-x="792" d="M649 788l-7 -45q-22 -19 -44.5 -20t-42 8.5t-40 19t-45.5 6.5t-50 -24l7 41q31 21 64 18t59 -17.5t53 -14.5t46 28zM516 676q143 0 226 -100.5t58 -242.5t-143.5 -242t-261.5 -100q-145 0 -228.5 100t-58.5 242q26 143 144.5 243t263.5 100zM507 626q-122 0 -223.5 -85.5 t-123.5 -207.5q-21 -122 50.5 -207.5t193.5 -85.5t222.5 86t121.5 207q22 121 -48.5 207t-192.5 86z" />
<glyph unicode="&#xd6;" horiz-adv-x="792" d="M441 767q2 16 14.5 26.5t28.5 10.5q15 0 23.5 -10.5t6.5 -26.5q-3 -15 -15.5 -25.5t-27.5 -10.5q-16 0 -24.5 10.5t-5.5 25.5zM552 767q2 16 14.5 26.5t28.5 10.5q15 0 23.5 -10.5t6.5 -26.5q-3 -15 -15.5 -25.5t-27.5 -10.5q-16 0 -24.5 10.5t-5.5 25.5zM516 676 q-145 0 -263.5 -100t-144.5 -243q-25 -142 58.5 -242t228.5 -100q143 0 261.5 100t143.5 242t-58 242.5t-226 100.5zM507 626q122 0 192.5 -86t48.5 -207q-21 -121 -121.5 -207t-222.5 -86t-193.5 85.5t-50.5 207.5q22 122 123.5 207.5t223.5 85.5z" />
<glyph unicode="&#xd7;" horiz-adv-x="616" d="M346 220l-171 -146l-25 31l171 145l-120 146l36 31l120 -146l172 147l26 -31l-172 -147l119 -144l-36 -31z" />
<glyph unicode="&#xd8;" horiz-adv-x="792" d="M118 -15l74 79q-53 48 -75.5 118.5t-8.5 150.5q26 143 144.5 243t263.5 100q106 0 187 -63l75 79h49l-98 -103q98 -103 71 -256q-25 -142 -143.5 -242t-261.5 -100q-100 0 -174 52l-54 -58h-49zM230 105l434 466q-66 55 -157 55q-122 0 -223.5 -85.5t-123.5 -207.5 q-24 -142 70 -228zM691 547l-432 -464q62 -43 145 -43q122 0 222.5 86t121.5 207q23 128 -57 214z" />
<glyph unicode="&#xd9;" horiz-adv-x="643" d="M442 839l28 -124h-33l-42 124h47zM690 667l-79 -447q-18 -105 -102 -167t-189 -62t-167.5 62t-44.5 167l79 447h52l-79 -447q-14 -83 35.5 -131.5t133.5 -48.5t150 48t80 132l79 447h52z" />
<glyph unicode="&#xda;" horiz-adv-x="643" d="M429 715l70 124h47l-84 -124h-33zM638 667l-79 -447q-14 -84 -80 -132t-150 -48t-133.5 48.5t-35.5 131.5l79 447h-52l-79 -447q-18 -105 44.5 -167t167.5 -62t189 62t102 167l79 447h-52z" />
<glyph unicode="&#xdb;" horiz-adv-x="643" d="M452 839h32l69 -124h-40l-50 94l-82 -94h-40zM638 667l-79 -447q-14 -84 -80 -132t-150 -48t-133.5 48.5t-35.5 131.5l79 447h-52l-79 -447q-18 -105 44.5 -167t167.5 -62t189 62t102 167l79 447h-52z" />
<glyph unicode="&#xdc;" horiz-adv-x="643" d="M364 767q2 16 14.5 26.5t27.5 10.5q16 0 24.5 -10.5t6.5 -26.5q-3 -15 -15.5 -25.5t-28.5 -10.5q-15 0 -23.5 10.5t-5.5 25.5zM475 767q2 16 14.5 26.5t28.5 10.5q15 0 23.5 -10.5t6.5 -26.5q-3 -15 -15.5 -25.5t-27.5 -10.5q-16 0 -24.5 10.5t-5.5 25.5zM638 667 l-79 -447q-14 -84 -80 -132t-150 -48t-133.5 48.5t-35.5 131.5l79 447h-52l-79 -447q-18 -105 44.5 -167t167.5 -62t189 62t102 167l79 447h-52z" />
<glyph unicode="&#xdd;" horiz-adv-x="550" d="M370 715l70 124h47l-84 -124h-33zM299 0l35 199l313 468h-56l-273 -412l-125 412h-56l144 -469l-34 -198h52z" />
<glyph unicode="&#xde;" horiz-adv-x="584" d="M225 587h213q86 0 133 -52.5t32 -141.5q-15 -86 -82 -139t-151 -53h-213l-35 -201h-52l27 156l10 59l80 452h52zM165 246h203q67 0 119 39.5t63 105.5q12 69 -25 108.5t-105 39.5h-203z" />
<glyph unicode="&#xdf;" horiz-adv-x="540" d="M54 -90l94 537q20 110 80 173t160 63q90 0 131.5 -49t27.5 -130q-8 -48 -46 -90.5t-89 -59.5q50 -16 79 -49t35 -62t2 -54q-17 -96 -90 -142.5t-213 -46.5l7 45q115 0 174.5 35.5t73.5 112.5q10 56 -32 93.5t-99 45.5l7 40q57 10 96 44t47 77q12 65 -19 103.5t-101 38.5 q-146 0 -180 -188l-94 -537h-51z" />
<glyph unicode="&#xe0;" horiz-adv-x="536" d="M325 667l26 -124h-33l-41 124h48zM411 0l9 54q-79 -63 -167 -63q-54 0 -99 16t-73.5 55t-18.5 96q12 65 65 105.5t118 40.5h217q10 83 -29.5 119.5t-129.5 36.5q-91 -4 -154 -43l8 46q72 38 163 38q227 0 190 -214q-20 -112 -49 -287h-50zM457 264h-204q-53 0 -93.5 -28 t-48.5 -75q-8 -45 15.5 -75t59 -41.5t78.5 -11.5q91 0 163 63z" />
<glyph unicode="&#xe1;" horiz-adv-x="536" d="M312 543l71 124h47l-85 -124h-33zM411 0h50q29 175 49 287q37 214 -190 214q-91 0 -163 -38l-8 -46q63 39 154 43q90 0 129.5 -36.5t29.5 -119.5h-217q-65 0 -118 -40.5t-65 -105.5q-10 -57 18.5 -96t73.5 -55t99 -16q88 0 167 63zM456 265l-30 -169q-72 -63 -162 -63 q-43 0 -78.5 11.5t-59 41.5t-15.5 75q8 47 48.5 75.5t93.5 28.5h203z" />
<glyph unicode="&#xe2;" horiz-adv-x="536" d="M347 662h32l68 -124h-40l-48 94l-84 -94h-40zM411 0h50q29 175 49 287q37 214 -190 214q-91 0 -163 -38l-8 -46q63 39 154 43q90 0 129.5 -36.5t29.5 -119.5h-217q-65 0 -118 -40.5t-65 -105.5q-10 -57 18.5 -96t73.5 -55t99 -16q88 0 167 63zM456 265l-30 -169 q-72 -63 -162 -63q-43 0 -78.5 11.5t-59 41.5t-15.5 75q8 47 48.5 75.5t93.5 28.5h203z" />
<glyph unicode="&#xe3;" horiz-adv-x="536" d="M466 639l-8 -45q-21 -19 -43.5 -20t-42.5 8.5t-40 18.5t-45.5 6.5t-50.5 -23.5l8 41q24 18 51 18.5t49.5 -9t44 -17.5t41.5 -4.5t36 26.5zM411 0l9 54q-79 -63 -167 -63q-54 0 -99 16t-73.5 55t-18.5 96q12 65 65 105.5t118 40.5h217q10 83 -29.5 119.5t-129.5 36.5 q-91 -4 -154 -43l8 46q72 38 163 38q227 0 190 -214q-20 -112 -49 -287h-50zM457 264h-204q-53 0 -93.5 -28t-48.5 -75q-8 -45 15.5 -75t59 -41.5t78.5 -11.5q91 0 163 63z" />
<glyph unicode="&#xe4;" horiz-adv-x="536" d="M268 587q3 16 15.5 26.5t28.5 10.5q15 0 23.5 -10.5t5.5 -26.5q-3 -15 -15 -25.5t-27 -10.5q-16 0 -25 10.5t-6 25.5zM379 587q3 16 15.5 26.5t28.5 10.5q15 0 23.5 -10.5t5.5 -26.5q-3 -15 -15 -25.5t-27 -10.5q-16 0 -25 10.5t-6 25.5zM411 0h50q29 175 49 287 q37 214 -190 214q-91 0 -163 -38l-8 -46q63 39 154 43q90 0 129.5 -36.5t29.5 -119.5h-217q-65 0 -118 -40.5t-65 -105.5q-10 -57 18.5 -96t73.5 -55t99 -16q88 0 167 63zM456 265l-30 -169q-72 -63 -162 -63q-43 0 -78.5 11.5t-59 41.5t-15.5 75q8 47 48.5 75.5t93.5 28.5 h203z" />
<glyph unicode="&#xe5;" horiz-adv-x="536" d="M380 709q34 0 53.5 -24.5t13.5 -57.5q-6 -34 -33.5 -58t-62.5 -24t-54.5 24.5t-13.5 57.5t34.5 57.5t62.5 24.5zM374 679q-22 0 -40 -15t-22 -37t9 -37.5t35 -15.5t40 15.5t22 37.5q2 22 -10.5 37t-33.5 15zM411 0l9 54q-79 -63 -167 -63q-54 0 -99 16t-73.5 55t-18.5 96 q12 65 65 105.5t118 40.5h217q10 83 -29.5 119.5t-129.5 36.5q-91 -4 -154 -43l8 46q72 38 163 38q227 0 190 -214q-20 -112 -49 -287h-50zM457 265h-204q-53 0 -93.5 -28.5t-48.5 -75.5q-8 -45 15.5 -75t59 -41.5t78.5 -11.5q91 0 163 63z" />
<glyph unicode="&#xe6;" horiz-adv-x="965" d="M411 0l9 54q-79 -63 -167 -63q-54 0 -99 16t-73.5 55t-18.5 96q12 65 65 105.5t118 40.5h217q10 83 -29.5 119.5t-129.5 36.5q-91 -4 -154 -43l8 46q72 38 163 38q172 0 192 -123q44 57 107 90t133 33q107 0 166.5 -80.5t37.5 -182.5h-455q-14 -89 39.5 -146.5 t148.5 -57.5q123 0 223 73l-8 -45q-43 -32 -104.5 -51.5t-121.5 -19.5q-69 0 -121 27.5t-80 76.5l-16 -95h-50zM457 265h-204q-53 0 -93.5 -28.5t-48.5 -75.5q-8 -45 15.5 -75t59 -41.5t78.5 -11.5q91 0 163 63zM510 276h405q8 77 -41.5 130t-129.5 53q-82 0 -148.5 -52 t-85.5 -131z" />
<glyph unicode="&#xe7;" horiz-adv-x="549" d="M339 -9l-30 -34q35 8 63 -6.5t22 -48.5q-5 -30 -33 -47t-62 -17q-35 0 -64 16l4 24q26 -17 64 -17q27 0 44 12t19 30q4 20 -13.5 30t-40.5 9t-37 -11l4 20l36 40q-109 5 -173 76t-45 179q20 111 113 183t207 72q93 0 159 -54l-8 -50q-63 60 -159 60q-93 0 -170 -59.5 t-93 -151.5t40 -151.5t149 -59.5t179 60l-9 -50q-76 -49 -166 -54z" />
<glyph unicode="&#xe8;" horiz-adv-x="614" d="M350 667h48l27 -124h-33zM598 238h-455q-14 -89 39.5 -146.5t148.5 -57.5q123 0 223 73l-8 -45q-43 -32 -104.5 -51.5t-121.5 -19.5q-116 0 -179.5 74t-43.5 188q20 104 105.5 176t191.5 72q107 0 166.5 -80.5t37.5 -182.5zM152 276h405q8 77 -41.5 130t-129.5 53 q-82 0 -148.5 -52t-85.5 -131z" />
<glyph unicode="&#xe9;" horiz-adv-x="614" d="M378 543l71 124h47l-85 -124h-33zM144 238h455q22 102 -37.5 182.5t-166.5 80.5q-106 0 -191.5 -72t-105.5 -176q-20 -114 43.5 -188t179.5 -74q60 0 121.5 19.5t104.5 51.5l8 45q-100 -73 -224 -73q-94 0 -148 57.5t-39 146.5zM557 276h-404q19 79 85.5 131t148.5 52 q80 0 129.5 -53t40.5 -130z" />
<glyph unicode="&#xea;" horiz-adv-x="614" d="M407 662h32l68 -124h-40l-49 94l-83 -94h-40zM144 238h455q22 102 -37.5 182.5t-166.5 80.5q-106 0 -191.5 -72t-105.5 -176q-20 -114 43.5 -188t179.5 -74q60 0 121.5 19.5t104.5 51.5l8 45q-100 -73 -224 -73q-94 0 -148 57.5t-39 146.5zM557 276h-404q19 79 85.5 131 t148.5 52q81 0 130.5 -52.5t39.5 -130.5z" />
<glyph unicode="&#xeb;" horiz-adv-x="614" d="M317 587q3 16 15.5 26.5t28.5 10.5q15 0 23.5 -10.5t5.5 -26.5q-3 -15 -15 -25.5t-27 -10.5q-16 0 -25 10.5t-6 25.5zM428 587q3 16 15.5 26.5t28.5 10.5q15 0 23.5 -10.5t5.5 -26.5q-3 -15 -15 -25.5t-27 -10.5q-16 0 -25 10.5t-6 25.5zM144 238h455q22 102 -37.5 182.5 t-166.5 80.5q-106 0 -191.5 -72t-105.5 -176q-20 -114 43.5 -188t179.5 -74q60 0 121.5 19.5t104.5 51.5l8 45q-100 -73 -224 -73q-94 0 -148 57.5t-39 146.5zM557 276h-404q19 79 85.5 131t148.5 52q80 0 129.5 -53t40.5 -130z" />
<glyph unicode="&#xec;" horiz-adv-x="219" d="M194 667l27 -124h-33l-41 124h47zM134 0h-50l86 492h50z" />
<glyph unicode="&#xed;" horiz-adv-x="219" d="M185 543l70 124h48l-85 -124h-33zM84 0h50l86 492h-50z" />
<glyph unicode="&#xee;" horiz-adv-x="219" d="M209 662h32l68 -124h-40l-48 94l-84 -94h-40zM84 0h50l86 492h-50z" />
<glyph unicode="&#xef;" horiz-adv-x="219" d="M120 587q3 16 15.5 26.5t28.5 10.5q15 0 23.5 -10.5t5.5 -26.5q-3 -15 -15 -25.5t-27 -10.5q-16 0 -25 10.5t-6 25.5zM231 587q3 16 15.5 26.5t28.5 10.5q15 0 23.5 -10.5t5.5 -26.5q-3 -15 -15 -25.5t-27 -10.5q-16 0 -25 10.5t-6 25.5zM84 0h50l86 492h-50z" />
<glyph unicode="&#xf0;" horiz-adv-x="588" d="M460 538l49 41q-25 31 -68.5 45t-89.5 7l3 18q0 1 1 9t2 13q26 3 54 0q92 -8 135 -59l62 52l19 -23l-59 -51q19 -31 21.5 -71.5t-8.5 -95.5l-74 -423h-51l9 53q-81 -62 -175 -62q-110 0 -174.5 72.5t-45.5 182.5t109.5 182.5t200.5 72.5q92 0 151 -70q14 79 -5 125 l-48 -41zM472 96l52 290q-55 73 -152 73q-90 0 -163.5 -60.5t-89.5 -152.5t36.5 -152.5t141.5 -60.5q97 0 175 63z" />
<glyph unicode="&#xf1;" horiz-adv-x="623" d="M534 639l-8 -45q-21 -19 -43.5 -20t-42.5 8.5t-40.5 18.5t-46 6.5t-50.5 -23.5l8 41q24 18 51 18.5t49.5 -9t44 -17.5t42 -4.5t36.5 26.5zM220 490l-11 -60q84 71 177 71q111 0 164.5 -72.5t34.5 -182.5l-43 -246h-51l43 246q16 93 -25.5 153t-130.5 60q-97 0 -176 -73 l-68 -386h-50l86 490h50z" />
<glyph unicode="&#xf2;" horiz-adv-x="639" d="M405 667l26 -124h-33l-41 124h48zM406 502q108 0 171.5 -75t44.5 -181t-108.5 -180.5t-197.5 -74.5q-109 0 -172 74.5t-44 180.5t108.5 181t197.5 75zM398 456q-87 0 -159.5 -61.5t-87.5 -148.5q-16 -87 35 -148.5t138 -61.5t159 61.5t88 148.5q15 87 -35.5 148.5 t-137.5 61.5z" />
<glyph unicode="&#xf3;" horiz-adv-x="639" d="M394 543l70 124h48l-85 -124h-33zM406 502q-108 0 -197.5 -75t-108.5 -181t44 -180.5t172 -74.5q108 0 197.5 74.5t108.5 180.5t-44.5 181t-171.5 75zM398 456q87 0 137.5 -61.5t35.5 -148.5q-16 -87 -88 -148.5t-159 -61.5t-138 61.5t-35 148.5q15 87 87.5 148.5 t159.5 61.5z" />
<glyph unicode="&#xf4;" horiz-adv-x="639" d="M417 662h32l68 -124h-40l-48 94l-84 -94h-40zM406 502q-108 0 -197.5 -75t-108.5 -181t44 -180.5t172 -74.5q108 0 197.5 74.5t108.5 180.5t-44.5 181t-171.5 75zM398 456q87 0 137.5 -61.5t35.5 -148.5q-16 -87 -88 -148.5t-159 -61.5t-138 61.5t-35 148.5 q15 87 87.5 148.5t159.5 61.5z" />
<glyph unicode="&#xf5;" horiz-adv-x="639" d="M541 639l-8 -45q-21 -19 -43.5 -20t-42.5 8.5t-40 18.5t-45.5 6.5t-50.5 -23.5l8 41q24 18 51 18.5t49.5 -9t44 -17.5t41.5 -4.5t36 26.5zM406 502q108 0 171.5 -75t44.5 -181t-108.5 -180.5t-197.5 -74.5q-109 0 -172 74.5t-44 180.5t108.5 181t197.5 75zM398 456 q-87 0 -159.5 -61.5t-87.5 -148.5q-16 -87 35 -148.5t138 -61.5t159 61.5t88 148.5q15 87 -35.5 148.5t-137.5 61.5z" />
<glyph unicode="&#xf6;" horiz-adv-x="639" d="M329 587q3 16 15.5 26.5t28.5 10.5q15 0 23.5 -10.5t5.5 -26.5q-3 -15 -15 -25.5t-27 -10.5q-16 0 -25 10.5t-6 25.5zM440 587q3 16 15.5 26.5t28.5 10.5q15 0 23.5 -10.5t5.5 -26.5q-3 -15 -15 -25.5t-27 -10.5q-16 0 -25 10.5t-6 25.5zM406 502q-108 0 -197.5 -75 t-108.5 -181t44 -180.5t172 -74.5q108 0 197.5 74.5t108.5 180.5t-44.5 181t-171.5 75zM398 456q87 0 137.5 -61.5t35.5 -148.5q-16 -87 -88 -148.5t-159 -61.5t-138 61.5t-35 148.5q15 87 87.5 148.5t159.5 61.5z" />
<glyph unicode="&#xf7;" horiz-adv-x="616" d="M326 377q3 18 18 30.5t32 12.5q18 0 28 -12.5t7 -30.5q-3 -17 -17.5 -29.5t-32.5 -12.5q-17 0 -27.5 12.5t-7.5 29.5zM584 273h-456l-8 -44h456zM281 122q3 18 18 30.5t32 12.5q18 0 28 -12.5t7 -30.5q-3 -17 -17.5 -29.5t-32.5 -12.5q-17 0 -27.5 12.5t-7.5 29.5z" />
<glyph unicode="&#xf8;" horiz-adv-x="639" d="M92 -29l71 75q-84 76 -63 200q19 106 108.5 181t197.5 75q81 0 137 -46l62 66h49l-83 -89q71 -75 51 -187q-19 -106 -108.5 -180.5t-197.5 -74.5q-72 0 -124 35l-51 -55h-49zM199 86l308 331q-47 39 -109 39q-87 0 -159.5 -61.5t-87.5 -148.5q-18 -99 48 -160zM534 393 l-306 -328q40 -29 96 -29q87 0 159 61.5t88 148.5q15 87 -37 147z" />
<glyph unicode="&#xf9;" horiz-adv-x="597" d="M398 667l27 -124h-33l-41 124h47zM461 0l10 60q-85 -71 -169 -71q-108 0 -154.5 70.5t-26.5 180.5l44 250h50l-44 -250q-16 -92 18 -150t120 -58q90 0 170 72l68 386h50l-86 -490h-50z" />
<glyph unicode="&#xfa;" horiz-adv-x="597" d="M381 543l70 124h48l-85 -124h-33zM511 0l86 490h-50l-68 -386q-81 -72 -170 -72q-86 0 -120 58t-18 150l44 250h-51l-44 -250q-20 -110 27 -180.5t155 -70.5q82 0 169 71l-10 -60h50z" />
<glyph unicode="&#xfb;" horiz-adv-x="597" d="M398 662h32l68 -124h-40l-48 94l-84 -94h-40zM511 0l86 490h-50l-68 -386q-81 -72 -170 -72q-86 0 -120 58t-18 150l44 250h-51l-44 -250q-20 -110 27 -180.5t155 -70.5q82 0 169 71l-10 -60h50z" />
<glyph unicode="&#xfc;" horiz-adv-x="597" d="M311 587q3 16 15.5 26.5t27.5 10.5q16 0 24.5 -10.5t5.5 -26.5q-3 -15 -15 -25.5t-28 -10.5q-15 0 -24 10.5t-6 25.5zM422 587q3 16 15.5 26.5t27.5 10.5q16 0 24.5 -10.5t5.5 -26.5q-3 -15 -15 -25.5t-28 -10.5q-15 0 -24 10.5t-6 25.5zM511 0l86 490h-50l-68 -386 q-81 -72 -170 -72q-86 0 -120 58t-18 150l44 250h-51l-44 -250q-20 -110 27 -180.5t155 -70.5q82 0 169 71l-10 -60h50z" />
<glyph unicode="&#xfd;" horiz-adv-x="530" d="M332 543l71 124h47l-85 -124h-33zM120 492l116 -490q-77 -149 -162 -149q-19 0 -40 3l-8 -45q23 -3 43 -3q57 -1 109 45t89 111l32 54l277 474h-54l-250 -426l-98 426h-54z" />
<glyph unicode="&#xfe;" horiz-adv-x="624" d="M200 667h51l-42 -237q80 71 176 71q109 -1 175 -73t46 -182q-19 -110 -110.5 -182t-200.5 -73q-96 0 -152 62q-9 -50 -21.5 -118t-21.5 -118h-49zM202 386l-52 -290q55 -63 152 -63q89 0 164 60.5t90 152.5q17 91 -36.5 152.5t-142.5 60.5q-44 1 -90.5 -18.5t-84.5 -54.5 z" />
<glyph unicode="&#xff;" horiz-adv-x="530" d="M270 587q3 16 15.5 26.5t27.5 10.5q16 0 24.5 -10.5t5.5 -26.5t-15 -26t-28 -10q-15 0 -24 10.5t-6 25.5zM381 587q3 16 15.5 26.5t28.5 10.5q15 0 23.5 -10.5t5.5 -26.5t-15 -26t-27 -10q-16 0 -25 10t-6 26zM120 492l116 -490q-77 -149 -162 -149q-19 0 -40 3l-8 -45 q23 -3 43 -3q57 -1 109 45t89 111l32 54l277 474h-54l-250 -426l-98 426h-54z" />
<glyph unicode="&#x152;" horiz-adv-x="1199" d="M690 0l31 181q-52 -85 -140.5 -137.5t-185.5 -52.5q-145 0 -228.5 100t-58.5 242q26 143 144.5 243t263.5 100q96 0 167 -53.5t92 -137.5l32 182h459l-8 -47h-407l-44 -251h395l-9 -49h-395l-49 -275h407l-7 -45h-459zM507 626q-122 0 -223.5 -85.5t-123.5 -207.5 q-21 -122 50.5 -207.5t193.5 -85.5t222.5 86t121.5 207q22 121 -48.5 207t-192.5 86z" />
<glyph unicode="&#x153;" horiz-adv-x="1072" d="M1061 238h-454q0 -2 -1 -4.5t-1 -3.5q-10 -86 43 -141t146 -55q123 0 223 73l-8 -45q-43 -32 -104.5 -51.5t-121.5 -19.5q-83 0 -140.5 39.5t-77.5 106.5q-44 -66 -114 -106t-148 -40q-108 0 -171 74.5t-44 180.5t108 181t197 75q77 0 132.5 -40t76.5 -105 q42 65 110.5 104.5t144.5 39.5q107 0 166.5 -80.5t37.5 -182.5zM385 456q-86 0 -159 -61.5t-88 -148.5q-16 -87 35 -148.5t138 -61.5q86 0 158 60t89 145l1 5q15 87 -36 148.5t-138 61.5zM615 276h405q8 77 -41.5 130t-129.5 53q-82 0 -148.5 -52t-85.5 -131z" />
<glyph unicode="&#x178;" horiz-adv-x="550" d="M317 767q2 16 14.5 26.5t27.5 10.5q16 0 24.5 -10.5t6.5 -26.5q-3 -16 -15.5 -26t-28.5 -10q-15 0 -23.5 10t-5.5 26zM428 767q2 16 14.5 26.5t27.5 10.5q16 0 24.5 -10.5t6.5 -26.5q-3 -16 -15.5 -26t-28.5 -10q-15 0 -23.5 10t-5.5 26zM299 0l35 199l313 468h-56 l-273 -412l-125 412h-56l144 -469l-34 -198h52z" />
<glyph unicode="&#x2c6;" horiz-adv-x="298" d="M249 662h32l68 -124h-40l-48 94l-84 -94h-40z" />
<glyph unicode="&#x2dc;" horiz-adv-x="306" d="M375 639l-8 -45q-21 -19 -43.5 -20t-42 8.5t-40 18.5t-46 6.5t-50.5 -23.5l8 41q31 21 64 18t59 -17.5t53 -14.5t46 28z" />
<glyph unicode="&#x2000;" horiz-adv-x="433" />
<glyph unicode="&#x2001;" horiz-adv-x="867" />
<glyph unicode="&#x2002;" horiz-adv-x="433" />
<glyph unicode="&#x2003;" horiz-adv-x="867" />
<glyph unicode="&#x2004;" horiz-adv-x="289" />
<glyph unicode="&#x2005;" horiz-adv-x="216" />
<glyph unicode="&#x2006;" horiz-adv-x="144" />
<glyph unicode="&#x2007;" horiz-adv-x="144" />
<glyph unicode="&#x2008;" horiz-adv-x="108" />
<glyph unicode="&#x2009;" horiz-adv-x="173" />
<glyph unicode="&#x200a;" horiz-adv-x="48" />
<glyph unicode="&#x2010;" horiz-adv-x="385" d="M363 273l-8 -44h-245l8 44h245z" />
<glyph unicode="&#x2011;" horiz-adv-x="385" d="M363 273l-8 -44h-245l8 44h245z" />
<glyph unicode="&#x2012;" horiz-adv-x="385" d="M363 273l-8 -44h-245l8 44h245z" />
<glyph unicode="&#x2013;" horiz-adv-x="485" d="M463 273l-8 -44h-345l8 44h345z" />
<glyph unicode="&#x2014;" horiz-adv-x="615" d="M593 273l-8 -44h-475l8 44h475z" />
<glyph unicode="&#x2018;" horiz-adv-x="215" d="M220 516h-22q-33 95 -30 108q3 19 17 31t33 12q17 0 27 -12t7 -31q-6 -32 -39 -40z" />
<glyph unicode="&#x2019;" horiz-adv-x="215" d="M175 516l31 68q-29 8 -23 40q3 19 17 31t32 12t28 -12t7 -31q-3 -14 -70 -108h-22z" />
<glyph unicode="&#x201a;" horiz-adv-x="215" d="M73 -68l31 68q-30 8 -24 40q3 18 17 30.5t32 12.5t28 -12.5t7 -30.5q-3 -14 -69 -108h-22z" />
<glyph unicode="&#x201c;" horiz-adv-x="333" d="M368 667l-31 -68q30 -8 24 -40q-3 -19 -17.5 -31t-32.5 -12t-27.5 12t-6.5 31q3 14 69 108h22zM244 667l-31 -68q30 -8 24 -40q-3 -19 -17.5 -31t-32.5 -12t-27.5 12t-6.5 31q3 14 69 108h22z" />
<glyph unicode="&#x201d;" horiz-adv-x="333" d="M172 516l31 68q-29 8 -23 40q3 19 17 31t32 12t28 -12t7 -31q-3 -14 -70 -108h-22zM296 516l31 68q-29 8 -23 40q3 19 17 31t31 12q19 0 29 -12t7 -31q-2 -12 -70 -108h-22z" />
<glyph unicode="&#x201e;" horiz-adv-x="333" d="M70 -68l31 68q-31 8 -24 41q3 18 17 30t32 12t28 -12t7 -30q-2 -13 -69 -109h-22zM194 -68l31 68q-31 8 -24 41q3 18 17 30t31 12q19 0 29 -12t7 -30q-2 -11 -69 -109h-22z" />
<glyph unicode="&#x2022;" horiz-adv-x="319" d="M114 255q7 37 38 63.5t68 26.5t58.5 -26.5t14.5 -63.5q-6 -37 -36.5 -63.5t-67.5 -26.5t-59 26t-16 64z" />
<glyph unicode="&#x2026;" horiz-adv-x="458" d="M40 42q3 18 17 30t32 12t28 -12t7 -30t-17 -30t-32 -12t-28 12t-7 30zM194 42q3 18 17 30t32 12t28 -12t7 -30t-17 -30t-32 -12t-28 12t-7 30zM348 42q3 18 17 30t32 12t28 -12t7 -30t-17 -30t-32 -12t-28 12t-7 30z" />
<glyph unicode="&#x202f;" horiz-adv-x="173" />
<glyph unicode="&#x2039;" horiz-adv-x="373" d="M358 487l-9 -54l-194 -182l130 -182l-10 -53l-160 216l7 38z" />
<glyph unicode="&#x203a;" horiz-adv-x="373" d="M102 16l10 53l194 182l-130 182l9 54l160 -217l-7 -38z" />
<glyph unicode="&#x205f;" horiz-adv-x="216" />
<glyph unicode="&#x20ac;" horiz-adv-x="675" d="M99 281h60q0 16 6 52q6 34 12 49h-60l6 34h66q46 114 146.5 187t220.5 73q75 0 146 -43l-9 -50q-67 47 -145 47q-99 0 -182 -60t-124 -154h233l-6 -34h-243q-6 -15 -12 -49q-5 -27 -6 -52h243l-6 -34h-232q8 -93 69.5 -151.5t160.5 -58.5q79 0 162 47l-9 -50 q-84 -43 -161 -43q-119 0 -193.5 71.5t-81.5 184.5h-67z" />
<glyph unicode="&#x2122;" horiz-adv-x="801" d="M433 687l-6 -32h-120l-65 -370h-37l65 370h-120l6 32h277zM755 285l55 313l-192 -313h-27l-81 313l-55 -313h-36l71 402h28l95 -353l220 353h29l-71 -402h-36z" />
</font>
</defs>
</svg>
