<?xml version="1.0" standalone="no"?>
<!DOCTYPE svg PUBLIC "-//W3C//DTD SVG 1.1//EN" "http://www.w3.org/Graphics/SVG/1.1/DTD/svg11.dtd" >
<svg xmlns="http://www.w3.org/2000/svg">
<metadata></metadata>
<defs>
<font id="metrischextralight_italic" horiz-adv-x="638" >
<font-face units-per-em="1000" ascent="750" descent="-250" />
<missing-glyph horiz-adv-x="298" />
<glyph unicode="&#xfb01;" horiz-adv-x="448" d="M480 676q16 0 24.5 -10.5t5.5 -26.5q-2 -14 -14.5 -24.5t-28.5 -10.5q-15 0 -23.5 10.5t-6.5 24.5q3 16 15.5 26.5t27.5 10.5zM203 492h259l-86 -492h-29l82 466h-230l-82 -466h-30l82 466h-65l4 26h65l9 52q24 132 140 132q22 0 43 -3l-4 -26q-30 4 -44 4 q-41 0 -67.5 -24.5t-37.5 -82.5z" />
<glyph unicode="&#xfb02;" horiz-adv-x="448" d="M173 492l9 52q24 132 140 132q22 0 43 -3l-4 -26q-30 4 -44 4q-41 0 -67.5 -24.5t-37.5 -82.5l-9 -52h132l-4 -26h-132l-82 -466h-30l82 466h-65l4 26h65zM376 0h-29l117 667h29z" />
<glyph unicode="&#xfb03;" horiz-adv-x="723" d="M448 492l9 52q24 132 140 132q22 0 43 -3l-4 -26q-30 4 -44 4q-41 0 -67.5 -24.5t-37.5 -82.5l-9 -52h132l-4 -26h-132l-82 -466h-30l82 466h-245l-82 -466h-30l82 466h-65l4 26h65l9 52q24 132 140 132q22 0 43 -3l-4 -26q-30 4 -44 4q-41 0 -67.5 -24.5t-37.5 -82.5 l-9 -52h245zM622 0h29l86 492h-29zM712 639q3 16 15.5 26.5t27.5 10.5q16 0 24.5 -10.5t5.5 -26.5q-2 -14 -14.5 -24.5t-28.5 -10.5q-15 0 -23.5 10.5t-6.5 24.5z" />
<glyph unicode="&#xfb04;" horiz-adv-x="723" d="M448 492l9 52q24 132 140 132q22 0 43 -3l-4 -26q-30 4 -44 4q-41 0 -67.5 -24.5t-37.5 -83.5l-9 -51h132l-4 -26h-132l-82 -466h-30l82 466h-245l-82 -466h-30l82 466h-65l4 26h65l9 52q24 132 140 132q22 0 43 -3l-4 -26q-30 4 -44 4q-41 0 -67.5 -24.5t-37.5 -82.5 l-9 -52h245zM651 0h-29l117 667h29z" />
<glyph horiz-adv-x="0" />
<glyph horiz-adv-x="333" />
<glyph unicode=" "  horiz-adv-x="298" />
<glyph unicode="&#x09;" horiz-adv-x="298" />
<glyph unicode="&#xa0;" horiz-adv-x="298" />
<glyph unicode="!" horiz-adv-x="230" d="M147 117h-24l86 550h47zM85 36q3 16 15 26.5t27 10.5q16 0 25 -10.5t6 -26.5q-3 -15 -15 -25.5t-28 -10.5q-15 0 -24 10.5t-6 25.5z" />
<glyph unicode="&#x22;" horiz-adv-x="315" d="M172 530l30 65q-24 8 -19 35q2 16 14.5 26.5t27.5 10.5q16 0 24.5 -10.5t6.5 -26.5q-3 -12 -63 -100h-21zM285 530l30 65q-24 8 -19 35q2 16 14.5 26.5t27.5 10.5q16 0 24.5 -10.5t6.5 -26.5q-3 -12 -63 -100h-21z" />
<glyph unicode="#" horiz-adv-x="765" d="M447 -11l76 218h-270l-76 -218h-28l76 218h-117l10 26h116l75 215h-116l9 27h116l73 205h28l-72 -205h270l72 205h29l-73 -205h131l-9 -27h-131l-75 -215h131l-10 -26h-130l-77 -218h-28zM533 233l74 215h-270l-74 -215h270z" />
<glyph unicode="$" horiz-adv-x="632" d="M283 -62l9 53q-136 7 -206 83l6 35q32 -42 87.5 -65.5t117.5 -25.5l55 314q-40 9 -64.5 15t-55 19t-46.5 28.5t-24.5 40t-3.5 56.5q10 58 51 101t93.5 62.5t110.5 21.5l9 55h25l-9 -55q120 -7 192 -80l-7 -35q-31 39 -82.5 62.5t-107.5 25.5l-52 -296q54 -12 84 -21 t66.5 -28t49.5 -49.5t5 -73.5q-11 -62 -55 -106t-98.5 -63t-115.5 -21l-9 -53h-25zM357 358l51 291q-78 -2 -144 -43t-79 -115q-5 -26 3 -46.5t21.5 -33t41 -23.5t48.5 -16.5t58 -13.5zM376 327l-54 -309q83 1 153 43t84 121q5 29 -3.5 51.5t-23 36t-44 25.5t-52 18 t-60.5 14z" />
<glyph unicode="%" horiz-adv-x="889" d="M272 0h-27l581 667h27zM357 665q74 0 114 -46.5t25 -128.5t-70.5 -128.5t-130.5 -46.5q-73 0 -112.5 47t-24.5 128q14 81 70 128t129 47zM353 644q-62 0 -110.5 -41t-61.5 -113t21.5 -113t96.5 -41q63 0 111.5 40.5t61.5 113.5q11 63 -18.5 108.5t-100.5 45.5zM783 350 q73 0 113 -47t25 -128q-15 -82 -70 -128.5t-129 -46.5q-73 0 -113 47t-26 128q15 81 71 128t129 47zM780 329q-63 0 -112 -41t-62 -113q-12 -72 22 -113t97 -41q64 0 112 40.5t60 113.5q12 63 -17.5 108.5t-99.5 45.5z" />
<glyph unicode="&#x26;" horiz-adv-x="687" d="M592 -21l-84 120q-64 -58 -119 -88t-121 -30q-38 0 -73.5 9.5t-65.5 29t-44.5 54t-6.5 79.5q7 32 21.5 58t44 53.5t44 39.5t60.5 43t54 36q-87 108 -72 197q9 53 55 87.5t101 34.5q60 0 96.5 -35.5t26.5 -91.5t-53 -102t-110 -92q58 -72 167 -234q63 71 118 182h30 q-59 -125 -131 -206l101 -144h-39zM329 402q62 42 102 83t49 91q8 46 -21.5 72.5t-76.5 26.5q-44 0 -79.5 -27.5t-42.5 -68.5q-14 -75 69 -177zM492 123q-93 140 -173 240q-14 -10 -49 -32.5t-55 -37.5t-45.5 -38t-40.5 -48t-20 -54q-11 -67 38.5 -104.5t127.5 -37.5 q109 0 217 112z" />
<glyph unicode="'" horiz-adv-x="204" d="M173 530l30 65q-24 8 -19 35q2 16 14.5 26.5t27.5 10.5q16 0 24.5 -10.5t6.5 -26.5q-3 -12 -63 -100h-21z" />
<glyph unicode="(" horiz-adv-x="327" d="M371 671l14 -21q-96 -61 -155 -156.5t-79 -205.5q-19 -110 6 -207t100 -156l-21 -21q-79 51 -106.5 160t-7.5 224q21 114 86.5 223t162.5 160z" />
<glyph unicode=")" horiz-adv-x="327" d="M57 -96l-14 21q96 59 155 156t78 207q20 109 -5.5 205t-99.5 157l21 21q54 -35 85.5 -101t35.5 -137t-7 -145q-20 -115 -86.5 -224t-162.5 -160z" />
<glyph unicode="*" horiz-adv-x="435" d="M335 528l109 -68l-16 -22l-108 69l-21 -120h-25l21 121l-134 -70l-8 22l134 68l-110 69l15 21l110 -69l21 119h25l-21 -119l132 69l9 -21z" />
<glyph unicode="+" horiz-adv-x="618" d="M336 238h-213l5 26h213l38 213h27l-38 -213h214l-5 -26h-214l-37 -214h-27z" />
<glyph unicode="," horiz-adv-x="143" d="M33 -64l30 65q-24 8 -19 35q3 16 15 26.5t27 10.5t24 -10.5t6 -26.5q-3 -12 -62 -100h-21z" />
<glyph unicode="-" horiz-adv-x="381" d="M355 264l-5 -26h-237l5 26h237z" />
<glyph unicode="." horiz-adv-x="139" d="M39 36q3 16 15 26.5t27 10.5q16 0 25 -10.5t6 -26.5q-3 -15 -15 -25.5t-28 -10.5q-15 0 -24 10.5t-6 25.5z" />
<glyph unicode="/" horiz-adv-x="328" d="M15 -12h-26l438 680h26z" />
<glyph unicode="0" horiz-adv-x="680" d="M458 676q116 0 176 -91.5t32 -251.5t-120.5 -251t-208.5 -91q-117 0 -177.5 92t-32.5 250q28 159 121 251t210 92zM453 648q-104 0 -187 -84t-109 -231q-25 -146 28.5 -230t156.5 -84t186 84t108 230q13 57 6 113.5t-25.5 101.5t-61.5 72.5t-102 27.5z" />
<glyph unicode="1" horiz-adv-x="301" d="M169 0l111 635q-24 -10 -71.5 -29.5t-70.5 -29.5l5 30l150 61h23l-117 -667h-30z" />
<glyph unicode="2" horiz-adv-x="610" d="M179 558l6 37q103 79 233 81q96 2 157.5 -49t45.5 -142q-5 -30 -37 -71t-68.5 -76t-101.5 -86t-102 -78t-105 -75q-17 -12 -35 -25l-36 -26t-26 -19h433l-5 -29h-478l4 28q33 25 83 60q228 163 310 233q125 108 135 164q14 79 -40.5 121.5t-137.5 41.5q-61 -1 -124 -24 t-111 -66z" />
<glyph unicode="3" horiz-adv-x="566" d="M533 639h-369l5 28h410l-4 -25l-328 -241q49 5 94.5 5.5t84 -13t65 -36t37.5 -63.5t1 -95q-18 -99 -108 -153.5t-194 -54.5q-92 0 -157 46l6 33q63 -51 156 -51q59 0 114 19t99 61.5t54 101.5q17 93 -31.5 138t-148.5 45q-61 0 -131 -18l4 24z" />
<glyph unicode="4" horiz-adv-x="610" d="M557 667h32l-87 -494h76l-5 -27h-76l-25 -146h-30l25 146h-395l5 29zM552 625l-441 -452h361z" />
<glyph unicode="5" horiz-adv-x="572" d="M174 667h412l-5 -28h-385l-44 -252q73 36 154 38q109 2 179 -54.5t52 -160.5q-18 -99 -109 -159t-195 -60q-91 0 -158 46l6 33q65 -51 157 -51q91 0 172 51.5t97 139.5q15 88 -47.5 140t-153.5 52q-88 0 -171 -49h-16z" />
<glyph unicode="6" horiz-adv-x="654" d="M651 608l-6 -35q-75 75 -190 75q-58 0 -113 -33.5t-93.5 -84t-64 -107.5t-30.5 -107q52 55 120 83.5t138 28.5q97 0 160.5 -60.5t46.5 -155.5q-17 -100 -100 -160t-185 -60q-70 0 -118 28.5t-68.5 75.5t-27 107.5t7.5 124.5q10 59 38 119t69.5 112t100.5 84.5t124 32.5 q116 0 191 -68zM339 21q90 0 162 51.5t88 139.5q14 84 -41.5 137t-142.5 53q-70 0 -137.5 -28.5t-115.5 -83.5q-13 -118 31.5 -193.5t155.5 -75.5z" />
<glyph unicode="7" horiz-adv-x="559" d="M588 639h-404l5 28h435l-5 -27l-390 -640h-31z" />
<glyph unicode="8" horiz-adv-x="611" d="M93 191q12 69 70 118.5t139 67.5q-53 17 -80 54t-18 89q12 69 77.5 112.5t143.5 43.5q76 -2 126.5 -44.5t37.5 -114.5q-9 -52 -51.5 -89t-99.5 -51q75 -19 117 -67t29 -119q-20 -96 -102.5 -147.5t-182.5 -51.5q-99 0 -160.5 54.5t-45.5 144.5zM369 389q69 0 124.5 33.5 t66.5 96.5q10 58 -33.5 94t-108.5 36t-120.5 -36t-65.5 -94q-10 -59 31 -94.5t106 -35.5zM303 21q57 0 108.5 17.5t92.5 57.5t51 96q14 77 -44 124t-143 47q-87 0 -159.5 -47.5t-86.5 -123.5q-14 -78 40.5 -124.5t140.5 -46.5z" />
<glyph unicode="9" horiz-adv-x="654" d="M110 62l7 35q63 -77 184 -77q79 0 151.5 56.5t114 132t49.5 143.5q-108 -112 -257 -112q-98 0 -161 60.5t-46 155.5q17 100 99.5 160t184.5 60q70 0 118 -28.5t68.5 -75.5t26.5 -107.5t-8 -124.5q-10 -59 -40 -119.5t-74 -112t-105 -84t-126 -32.5q-120 0 -186 70z M431 647q-90 0 -162.5 -51.5t-87.5 -139.5q-15 -84 40.5 -137t143.5 -53q70 0 138 28.5t115 83.5q13 118 -31.5 193.5t-155.5 75.5z" />
<glyph unicode=":" horiz-adv-x="139" d="M80 269q2 15 14.5 25.5t27.5 10.5q16 0 24.5 -10.5t6.5 -25.5q-3 -15 -15 -25.5t-28 -10.5q-15 0 -24 10.5t-6 25.5zM39 36q3 16 15 26.5t27 10.5q16 0 25 -10.5t6 -26.5q-3 -15 -15 -25.5t-28 -10.5q-15 0 -24 10.5t-6 25.5z" />
<glyph unicode=";" horiz-adv-x="139" d="M110 233q-15 0 -24 10.5t-6 25.5q2 15 14.5 25.5t27.5 10.5q16 0 24.5 -10.5t6.5 -25.5q-3 -15 -15 -25.5t-28 -10.5zM33 -64l30 66q-24 7 -19 34q3 16 15 26.5t27 10.5t24 -10.5t6 -26.5q-4 -15 -11 -22l-51 -78h-21z" />
<glyph unicode="&#x3c;" horiz-adv-x="493" d="M470 450l-5 -29l-314 -170l254 -170l-5 -29l-281 187l4 24z" />
<glyph unicode="=" horiz-adv-x="475" d="M130 329h331l-5 -25h-331zM109 215h331l-4 -26h-331z" />
<glyph unicode="&#x3e;" horiz-adv-x="493" d="M111 52l5 29l314 170l-254 170l5 29l281 -187l-4 -24z" />
<glyph unicode="?" horiz-adv-x="483" d="M136 565l6 34q100 81 208 78q83 -2 132 -55t35 -133q-6 -33 -36.5 -67.5t-70 -66t-79 -66t-70 -79.5t-37.5 -93h-26q8 52 39 99.5t70 82.5t78 66.5t68.5 63t34.5 60.5q12 69 -30.5 114t-113.5 47q-108 0 -208 -85zM161 36q3 16 15 26.5t27 10.5q16 0 25 -10.5t6 -26.5 q-3 -15 -15 -25.5t-28 -10.5q-15 0 -24 10.5t-6 25.5z" />
<glyph unicode="@" horiz-adv-x="817" d="M570 5l-4 -27q-79 -40 -164 -40q-146 0 -231 98t-59 249q17 100 80 178.5t150.5 120t182.5 41.5q85 0 147 -25.5t93.5 -68t43 -93t3.5 -105.5q-15 -101 -75 -169.5t-122 -78.5q-35 -5 -55 10.5t-21 51.5q-55 -41 -119 -41q-69 0 -113 47t-31 123q13 74 73.5 121.5 t130.5 47.5q62 0 104 -40l6 32h24l-47 -265q-6 -37 7 -52.5t42 -12.5q55 12 106.5 72.5t65.5 150.5q8 51 -3 98t-40.5 86t-87.5 62.5t-137 23.5q-137 0 -248 -88t-135 -227q-25 -140 53.5 -231.5t215.5 -91.5q81 0 164 43zM542 176l34 198q-35 46 -100 46 q-59 0 -110.5 -39.5t-62.5 -104.5q-11 -66 25.5 -106t95.5 -40q64 0 118 46z" />
<glyph unicode="A" horiz-adv-x="617" d="M563 0l-43 184h-359l-107 -184h-32l388 667h31l154 -667h-32zM515 211l-97 416l-242 -416h339z" />
<glyph unicode="B" horiz-adv-x="599" d="M189 667h253q81 0 131.5 -42.5t36.5 -120.5q-10 -54 -50 -94.5t-97 -55.5q66 -12 99.5 -59.5t21.5 -114.5q-15 -82 -80.5 -131t-148.5 -49h-283zM165 364h237q66 4 117.5 39t62.5 98q12 67 -32.5 102.5t-115.5 35.5h-221zM105 28h251q73 0 130 41.5t70 112.5 q13 77 -33 116t-126 39h-237z" />
<glyph unicode="C" horiz-adv-x="636" d="M570 67l-6 -33q-86 -43 -175 -43q-142 0 -225.5 100t-58.5 242t143.5 242.5t261.5 100.5q88 0 160 -43l-6 -33q-70 48 -159 48q-130 0 -238.5 -92.5t-131.5 -222.5t53 -222t206 -92q89 0 176 48z" />
<glyph unicode="D" d="M189 667h184q141 0 223.5 -97.5t57.5 -236.5q-24 -138 -140.5 -235.5t-257.5 -97.5h-184zM106 28h151q130 0 237.5 89t130.5 216q22 127 -53.5 216.5t-206.5 89.5h-151z" />
<glyph unicode="E" horiz-adv-x="577" d="M578 362l-5 -28h-413l-54 -307h423l-4 -27h-453l117 667h453l-5 -28h-423l-49 -277h413z" />
<glyph unicode="F" horiz-adv-x="577" d="M577 362l-5 -28h-412l-58 -334h-30l117 667h453l-5 -28h-423l-49 -277h412z" />
<glyph unicode="G" horiz-adv-x="652" d="M671 633l-6 -33q-70 48 -160 48q-130 0 -238.5 -92.5t-131.5 -222.5t53 -222t206 -92q83 0 162 41l49 275h-235l5 28h264l-57 -320q-98 -52 -193 -52q-142 0 -225.5 100t-58.5 242t143.5 242.5t261.5 100.5q89 0 161 -43z" />
<glyph unicode="H" horiz-adv-x="610" d="M572 363l53 304h30l-117 -667h-30l58 334h-406l-58 -334h-30l117 667h30l-53 -304h406z" />
<glyph unicode="I" horiz-adv-x="173" d="M101 0h-29l117 667h29z" />
<glyph unicode="J" horiz-adv-x="482" d="M82 34l6 33q70 -48 158 -48q59 0 106.5 45t57.5 105l88 498h29l-88 -498q-12 -72 -68.5 -125t-128.5 -53q-89 0 -160 43z" />
<glyph unicode="K" horiz-adv-x="593" d="M149 272l462 395h41l-300 -257l205 -410h-36l-193 389l-186 -158l-40 -231h-30l117 667h30z" />
<glyph unicode="L" horiz-adv-x="539" d="M501 28l-4 -28h-425l117 667h30l-113 -639h395z" />
<glyph unicode="M" horiz-adv-x="743" d="M641 0l104 594l-360 -594h-27l-153 594l-104 -594h-29l117 667h25l163 -629l385 629h26l-117 -667h-30z" />
<glyph unicode="N" horiz-adv-x="637" d="M543 51l109 616h30l-117 -667h-27l-329 614l-108 -614h-29l117 667h26z" />
<glyph unicode="O" horiz-adv-x="792" d="M515 676q143 0 225.5 -100.5t57.5 -242.5t-143 -242t-261 -100t-226 100t-58 242q26 143 144 243t261 100zM510 647q-130 0 -238.5 -92t-131.5 -222t53 -222t206 -92t238 92t131 222t-52.5 222t-205.5 92z" />
<glyph unicode="P" horiz-adv-x="576" d="M189 667h254q86 0 133 -51t32 -137q-15 -84 -81 -135.5t-150 -51.5h-224l-51 -292h-30zM158 319h220q73 0 130.5 43.5t69.5 115.5q13 75 -28 117.5t-116 42.5h-220z" />
<glyph unicode="Q" horiz-adv-x="809" d="M707 -71l-101 128q-99 -66 -212 -66q-143 0 -226 100t-58 242q26 143 144 243t261 100t225.5 -100.5t57.5 -242.5q-13 -76 -58 -144.5t-110 -116.5l114 -143h-37zM510 647q-130 0 -238.5 -92t-131.5 -222t53 -222t206 -92t238.5 92t130.5 222q23 130 -52.5 222t-205.5 92 z" />
<glyph unicode="R" horiz-adv-x="577" d="M189 667h254q86 0 133 -51t32 -138q-14 -77 -72.5 -127t-135.5 -58l125 -293h-33l-124 292h-215l-51 -292h-30zM158 320h220q73 0 130.5 43.5t69.5 114.5q13 75 -28 117.5t-116 42.5h-220z" />
<glyph unicode="S" horiz-adv-x="603" d="M86 74l6 37q35 -45 95.5 -68.5t126.5 -23.5q86 0 158 41.5t87 121.5q13 77 -73 115q-31 13 -83.5 25t-94.5 21.5t-81.5 26t-58 46.5t-10.5 75q10 59 53 102.5t97.5 63t113.5 19.5q132 0 209 -80l-7 -37q-34 42 -90.5 65.5t-116.5 23.5q-51 0 -98.5 -16t-85.5 -53t-47 -89 q-5 -30 4.5 -52t34.5 -36t50.5 -22.5t65.5 -17.5q119 -26 149 -37q102 -38 100 -120q-1 -12 -3 -24q-11 -63 -56.5 -107.5t-102.5 -63.5t-119 -19q-65 0 -124.5 21t-98.5 62z" />
<glyph unicode="T" horiz-adv-x="542" d="M612 667l-5 -29h-209l-112 -638h-30l112 638h-209l5 29h448z" />
<glyph unicode="U" d="M683 667l-80 -454q-18 -102 -100.5 -162t-185.5 -60t-164.5 60t-43.5 162l80 454h30l-80 -454q-16 -89 38 -141.5t145 -52.5t163 52t88 142l80 454h30z" />
<glyph unicode="V" horiz-adv-x="619" d="M317 42l365 625h32l-389 -667h-31l-155 667h32z" />
<glyph unicode="W" horiz-adv-x="925" d="M593 667l100 -622l295 622h33l-319 -667h-30l-101 617l-316 -617h-30l-86 667h33l77 -622l317 622h27z" />
<glyph unicode="X" horiz-adv-x="558" d="M333 310l-275 -310h-36l297 335l-177 332h36l164 -306l272 306h36l-294 -332l180 -335h-36z" />
<glyph unicode="Y" horiz-adv-x="534" d="M139 667h33l136 -433l288 433h33l-313 -467l-35 -200h-29l35 199z" />
<glyph unicode="Z" horiz-adv-x="636" d="M114 29h455l-5 -29h-492l4 28l563 610h-455l5 29h492l-5 -28z" />
<glyph unicode="[" horiz-adv-x="289" d="M84 -100l135 767h115l-4 -26h-87l-127 -716h87l-4 -25h-115z" />
<glyph unicode="\" horiz-adv-x="328" d="M333 -12h-26l-198 680h26z" />
<glyph unicode="]" horiz-adv-x="289" d="M145 -75l127 716h-87l4 26h115l-135 -767h-115l4 25h87z" />
<glyph unicode="^" horiz-adv-x="531" d="M378 645l-165 -179h-29l189 206h20l118 -206h-31z" />
<glyph unicode="_" horiz-adv-x="557" d="M486 9l-4 -24h-413l4 24h413z" />
<glyph unicode="`" horiz-adv-x="290" d="M219 667h33l31 -123h-23z" />
<glyph unicode="a" horiz-adv-x="525" d="M424 0l9 57q-82 -66 -175 -66q-55 0 -101 16t-74.5 55t-18.5 96q12 64 65 104.5t118 40.5h228q12 92 -30 132t-138 40q-91 -4 -153 -42l5 30q72 38 163 38q217 0 180 -214q-20 -112 -49 -287h-29zM471 276h-224q-57 0 -100.5 -32t-52.5 -85q-13 -71 40 -106t130 -35 q96 0 173 63z" />
<glyph unicode="b" horiz-adv-x="579" d="M208 667l-42 -241q89 75 189 75q110 0 174.5 -72.5t45.5 -182.5t-109.5 -182.5t-200.5 -72.5q-101 0 -164 66l-10 -57h-29l117 667h29zM161 401l-56 -320q60 -63 165 -63q98 0 178 65t98 163q17 98 -40.5 163t-155.5 65q-102 0 -189 -73z" />
<glyph unicode="c" horiz-adv-x="560" d="M566 447l-6 -33q-63 60 -158 60q-100 0 -183 -64.5t-101 -163.5t43 -163.5t161 -64.5q96 0 179 60l-6 -33q-85 -54 -178 -54q-112 0 -179.5 72t-47.5 183t112.5 183t204.5 72q93 0 159 -54z" />
<glyph unicode="d" horiz-adv-x="579" d="M634 667l-117 -667h-30l10 57q-86 -66 -187 -66q-110 0 -174.5 72.5t-45.5 182.5t109.5 182.5t200.5 72.5q100 0 162 -75l42 241h30zM501 81l56 320q-58 73 -162 73q-98 0 -179 -65t-98 -163q-18 -98 40.5 -163t156.5 -65q103 0 186 63z" />
<glyph unicode="e" horiz-adv-x="600" d="M590 242h-472q-16 -98 42 -161t158 -63q126 0 227 76l-5 -31q-46 -33 -108 -52.5t-121 -19.5q-115 0 -177.5 74t-42.5 188q21 104 105 176t189 72q107 0 165.5 -78.5t39.5 -180.5zM124 268h443q9 86 -45 146t-142 60q-90 0 -163 -59t-93 -147z" />
<glyph unicode="f" horiz-adv-x="271" d="M173 492l9 52q24 132 140 132q22 0 43 -3l-4 -26q-30 4 -44 4q-41 0 -67.5 -24.5t-37.5 -82.5l-9 -52h132l-4 -26h-132l-82 -466h-30l82 466h-65l4 26h65z" />
<glyph unicode="g" horiz-adv-x="580" d="M604 492l-89 -504q-21 -118 -95 -170.5t-171 -50.5q-60 -1 -114.5 18.5t-90.5 56.5l6 34q33 -40 87.5 -61.5t116.5 -21.5q84 -1 149 45t84 151q3 18 5 31.5t6 36.5q-83 -66 -186 -66q-109 1 -175 73t-46 182q18 110 110 182t201 73q103 0 161 -75l11 66h30zM502 81 l56 320q-58 75 -161 73q-97 1 -178.5 -64t-98.5 -164q-18 -98 40.5 -163t156.5 -65q104 0 185 63z" />
<glyph unicode="h" horiz-adv-x="559" d="M208 667l-42 -241q89 75 189 75q109 0 161.5 -72.5t33.5 -182.5l-43 -246h-29l43 246q17 99 -28.5 163.5t-142.5 64.5q-102 0 -189 -73l-70 -401h-29l117 667h29z" />
<glyph unicode="i" horiz-adv-x="173" d="M162 639q3 16 15.5 26.5t27.5 10.5q16 0 24.5 -10.5t5.5 -26.5q-2 -14 -14.5 -24.5t-28.5 -10.5q-15 0 -23.5 10.5t-6.5 24.5zM72 0h29l86 492h-29z" />
<glyph unicode="j" horiz-adv-x="206" d="M195 639q3 16 15.5 26.5t27.5 10.5t23.5 -10.5t5.5 -26.5q-2 -14 -14.5 -25t-27.5 -11t-23.5 11t-6.5 25zM190 492l-97 -551q-18 -107 -105 -107q-13 0 -43 4l-5 -26q23 -3 44 -3q116 0 139 131l97 552h-30z" />
<glyph unicode="k" horiz-adv-x="557" d="M217 667l-81 -459q371 258 409 284h44l-273 -191l204 -301h-37l-193 283l-160 -111l-30 -172h-28l117 667h28z" />
<glyph unicode="l" horiz-adv-x="173" d="M101 0h-29l117 667h29z" />
<glyph unicode="m" horiz-adv-x="904" d="M182 490l-11 -64q89 75 187 75q120 0 149 -105q99 105 227 105q94 0 133 -58.5t22 -152.5l-51 -290h-30l50 287q15 84 -16.5 135.5t-112.5 51.5q-120 0 -210 -98q-11 -63 -32.5 -188.5t-32.5 -187.5h-31l59 339q9 50 -21.5 92.5t-107.5 42.5q-102 0 -187 -73l-70 -401 h-29l86 490h29z" />
<glyph unicode="n" horiz-adv-x="579" d="M182 490l-11 -64q89 75 189 75q109 0 161.5 -72.5t33.5 -182.5l-43 -246h-29l43 246q18 99 -28 163.5t-143 64.5q-102 0 -189 -73l-70 -401h-29l86 490h29z" />
<glyph unicode="o" horiz-adv-x="608" d="M392 502q107 0 169 -75t43 -181t-107 -180.5t-195 -74.5t-169 74.5t-43 180.5t107.5 181t194.5 75zM387 474q-95 0 -173.5 -67t-94.5 -161q-17 -95 38.5 -161.5t149.5 -66.5q95 0 173.5 67t94.5 161q17 95 -38.5 161.5t-149.5 66.5z" />
<glyph unicode="p" horiz-adv-x="580" d="M148 492h29l-11 -66q86 75 188 75q109 -1 175 -73t46 -182q-19 -110 -110.5 -182t-200.5 -73q-104 0 -163 66q-10 -51 -22.5 -119t-21.5 -120h-28zM161 401l-56 -320q61 -63 164 -63q97 0 178.5 65t97.5 163q19 98 -40 163.5t-156 64.5q-101 2 -188 -73z" />
<glyph unicode="q" horiz-adv-x="580" d="M485 -182h-29q9 52 21 119.5t21 119.5q-83 -66 -186 -66q-109 1 -175 73t-46 182q18 110 110 182t201 73q103 0 161 -75l11 66h30zM502 81l56 320q-60 75 -161 73q-97 1 -178.5 -64t-98.5 -164q-18 -98 40.5 -163t156.5 -65q104 0 185 63z" />
<glyph unicode="r" horiz-adv-x="353" d="M182 492l-11 -62q88 71 189 71q27 0 48 -4l-5 -27q-21 4 -49 4q-101 0 -187 -69l-71 -405h-29l86 492h29z" />
<glyph unicode="s" horiz-adv-x="494" d="M73 50l6 34q29 -32 76 -49.5t96 -17.5q40 0 78.5 10.5t71 38.5t39.5 69q6 35 -14.5 54t-62.5 31q-20 6 -53.5 12.5t-58 11.5t-52.5 14.5t-44.5 22t-25.5 33t-4 48.5q13 68 75 103.5t135 35.5q101 0 163 -58l-6 -34q-28 31 -72 48.5t-91 17.5q-61 0 -113.5 -29t-62.5 -86 q-9 -52 59 -76q23 -8 65.5 -16.5t75 -15.5t64 -20t46 -38t7.5 -61q-8 -49 -46 -82.5t-83 -46.5t-94 -13q-111 0 -174 59z" />
<glyph unicode="t" horiz-adv-x="296" d="M183 492l31 175h30l-31 -175h132l-4 -26h-132l-59 -334q-20 -108 67 -108q14 0 44 4l-4 -26q-22 -3 -46 -3q-115 0 -91 133l59 334h-65l4 26h65z" />
<glyph unicode="u" horiz-adv-x="551" d="M454 0l11 64q-89 -75 -179 -75q-107 0 -152 71t-25 183l44 247h29l-44 -247q-18 -101 19.5 -164t132.5 -63q94 0 179 73l71 401h30l-86 -490h-30z" />
<glyph unicode="v" horiz-adv-x="481" d="M108 492h31l107 -455l267 455h32l-289 -492h-31z" />
<glyph unicode="w" horiz-adv-x="749" d="M453 446l-230 -446h-29l-86 492h30l78 -453l231 453h27l79 -452l229 452h31l-251 -492h-29z" />
<glyph unicode="x" horiz-adv-x="440" d="M245 246l-137 246h35l124 -222l202 222h35l-224 -246l138 -246h-35l-124 222l-202 -222h-35z" />
<glyph unicode="y" horiz-adv-x="482" d="M139 492l107 -455l268 455h32l-318 -541q-36 -62 -83 -102.5t-96 -39.5q-21 0 -42 3l5 27q20 -3 39 -3q27 0 53 14.5t49 42t38 51t33 55.5l-116 493h31z" />
<glyph unicode="z" horiz-adv-x="504" d="M523 465l-415 -437h338l-4 -28h-380q0 4 2 14t3 14l415 437h-338l5 27h379z" />
<glyph unicode="{" horiz-adv-x="386" d="M433 670l-5 -26q-79 0 -95 -78q-1 -8 -6 -37t-7 -41.5t-8.5 -40t-12 -42.5t-16 -37t-22 -35.5t-28 -26.5t-35.5 -20q19 -8 32 -22t18.5 -35.5t8.5 -37.5t-0.5 -47t-5 -45t-8.5 -49t-8 -43q-4 -24 1.5 -41t15 -23.5t20.5 -11t19.5 -3.5t10.5 0l-5 -25q-7 -1 -16.5 0 t-25.5 6t-27 15t-18 31t-2 51q2 18 7.5 52t9 57.5t3.5 53t-6.5 49t-24.5 35.5t-47 21l4 26q37 5 63 24t40.5 52t22 59t15 70.5t11.5 61.5q8 36 26.5 60t41 32t36 10t23.5 1z" />
<glyph unicode="|" horiz-adv-x="231" d="M89 -73l139 793h27l-139 -793h-27z" />
<glyph unicode="}" horiz-adv-x="386" d="M185 644l5 26q7 1 16.5 0t25 -6t27 -15t18 -31t1.5 -51q-2 -18 -9 -61.5t-9 -70.5t1 -59.5t22 -51.5t53 -24l-4 -26q-31 -5 -54.5 -21t-37 -35.5t-24 -49.5t-15 -53t-11 -57t-10.5 -52q-8 -36 -26.5 -60t-40.5 -32t-35.5 -10t-23.5 -1l5 25q77 0 95 79q1 8 6.5 42.5t9 49 t10.5 45t16 47t21.5 38t30.5 35.5t40 22q-19 8 -32 22t-18.5 35t-8 39t1 47.5t5.5 45.5t8 48.5t8 42.5q3 23 -2.5 40t-15 23.5t-20.5 11t-19 3.5t-10 0z" />
<glyph unicode="~" horiz-adv-x="526" d="M505 292l-6 -35q-35 -30 -75 -32.5t-76.5 10.5t-74 26t-80 8t-81.5 -37l6 33q41 29 86 31.5t82.5 -11t74.5 -26t74.5 -7t69.5 39.5z" />
<glyph unicode="&#xa1;" horiz-adv-x="230" d="M167 501q2 15 14.5 25.5t27.5 10.5q16 0 24.5 -10.5t6.5 -25.5q-3 -16 -15.5 -26.5t-28.5 -10.5q-15 0 -23.5 10.5t-5.5 26.5zM177 420h24l-85 -550h-47z" />
<glyph unicode="&#xa2;" horiz-adv-x="552" d="M144 -62l49 89q-54 33 -80 90t-13 129q20 111 112.5 183t204.5 72q21 0 37 -3l46 82h25l-49 -87q59 -12 100 -46l-5 -32q-43 42 -109 54l-236 -428q33 -16 68 -20q20 -3 41 -3q94 0 176 59l-6 -32q-85 -54 -178 -54q-62 0 -115 25l-42 -78h-26zM208 52l229 418 q-7 2 -27 4q-99 -1 -181.5 -65t-100.5 -163q-11 -63 11 -113.5t69 -80.5z" />
<glyph unicode="&#xa3;" horiz-adv-x="654" d="M202 349l23 129q14 81 87 134.5t155 55.5q108 0 181 -79l-5 -33q-32 40 -80.5 62.5t-100.5 21.5q-67 0 -131 -43t-77 -119l-23 -129h244l-4 -24h-244l-45 -253q37 6 84.5 -4.5t87.5 -25t81.5 -23.5t81.5 2.5t72 50.5l-7 -38q-39 -36 -82.5 -45t-81 3t-81 26.5t-82.5 25.5 t-86 1t-90 -48l6 34q35 26 67 36l46 258h-69l4 24h69z" />
<glyph unicode="&#xa4;" horiz-adv-x="556" d="M559 430l-89 -77q31 -45 20 -108q-12 -60 -58 -108l62 -76l-25 -22l-63 77q-52 -39 -115 -39q-59 0 -101 39l-90 -77l-18 22l91 76q-31 50 -20 108q10 62 58 108l-64 77l26 21l63 -76q55 39 114 39q63 0 102 -39l90 76zM181 245q-10 -55 24 -97t91 -42q56 0 105.5 41 t59.5 98t-23.5 98.5t-92.5 41.5q-57 0 -105 -41t-59 -99z" />
<glyph unicode="&#xa5;" horiz-adv-x="553" d="M274 130l5 28l4 29h-156l5 24h152l-144 456h32l136 -433l289 433h33l-306 -456h150l-5 -24h-154l-6 -29l-5 -28h155l-4 -24h-155l-18 -106h-30l18 106h-157l4 24h157z" />
<glyph unicode="&#xa6;" horiz-adv-x="231" d="M89 -73l59 339h27l-59 -339h-27zM169 381l59 339h27l-59 -339h-27z" />
<glyph unicode="&#xa7;" horiz-adv-x="520" d="M69 -30l6 33q57 -64 160 -66q171 0 189 99q4 22 -2.5 37.5t-15.5 24t-34 15.5t-39.5 9.5t-49.5 7.5q-33 4 -54 7.5t-47.5 12t-40.5 20t-22.5 31t-3.5 44.5q16 94 135 119q-52 14 -77.5 38t-17.5 69q12 68 74 103.5t136 35.5q103 0 162 -58l-6 -33q-26 30 -69.5 47 t-89.5 18q-63 0 -116.5 -29.5t-63.5 -84.5q-4 -22 3.5 -38.5t19 -26.5t35 -18t41 -11.5t47.5 -8.5q39 -6 64 -13t50.5 -20.5t35 -36t3.5 -55.5q-8 -50 -36 -73.5t-75 -30.5q48 -11 70 -33.5t14 -69.5q-23 -124 -220 -124q-102 0 -165 59zM452 243q10 52 -34.5 78.5 t-113.5 26.5q-62 0 -107.5 -24t-55.5 -80q-5 -26 5 -43.5t33.5 -26.5t48.5 -13t61 -6q34 -1 57.5 1t47.5 10.5t38.5 27.5t19.5 49z" />
<glyph unicode="&#xa8;" horiz-adv-x="253" d="M146 586q2 14 13 23t24 9q14 0 21.5 -9.5t5.5 -22.5q-3 -14 -13.5 -23t-24.5 -9t-21.5 9t-4.5 23zM249 586q2 14 13 23t24 9q14 0 21.5 -9.5t5.5 -22.5q-3 -14 -13.5 -23t-24.5 -9t-21.5 9t-4.5 23z" />
<glyph unicode="&#xa9;" horiz-adv-x="832" d="M535 676q143 0 225.5 -100.5t57.5 -242.5t-143 -242t-261 -100q-142 0 -225.5 100t-58.5 242t143.5 242.5t261.5 100.5zM530 652q-132 0 -242.5 -93.5t-133.5 -225.5t54.5 -225.5t209.5 -93.5q133 0 243 93.5t133 225.5t-54 225.5t-210 93.5zM552 210l-5 -26 q-44 -22 -87 -22q-72 0 -113.5 50t-29.5 121q13 71 72.5 121.5t131.5 50.5q43 0 79 -22l-5 -26q-33 24 -76 24q-65 0 -115 -41.5t-62 -106.5q-11 -65 23.5 -106t99.5 -41q45 0 87 24z" />
<glyph unicode="&#xaa;" horiz-adv-x="334" d="M324 364l5 32q-46 -37 -102 -37q-52 0 -88.5 25.5t-27.5 75.5q7 39 39 64t71 25h135q7 53 -17.5 75.5t-81.5 22.5q-52 -2 -93 -27l4 23q44 24 98 24q132 0 109 -130l-15 -85q-3 -14 -7.5 -44t-6.5 -44h-22zM353 532h-132q-32 0 -58 -20.5t-31 -51.5q-8 -42 23.5 -62 t75.5 -20q58 0 101 36z" />
<glyph unicode="&#xab;" horiz-adv-x="511" d="M356 483l-7 -37l-203 -195l134 -195l-6 -36l-155 221l4 20zM494 483l-7 -37l-203 -195l134 -195l-6 -36l-155 221l4 20z" />
<glyph unicode="&#xac;" horiz-adv-x="485" d="M428 238h-315l5 26h341l-25 -144h-26z" />
<glyph unicode="&#xad;" horiz-adv-x="381" d="M355 264l-5 -26h-237l5 26h237z" />
<glyph unicode="&#xae;" horiz-adv-x="832" d="M535 676q143 0 225.5 -100.5t57.5 -242.5t-143 -242t-261 -100q-142 0 -225.5 100t-58.5 242t143.5 242.5t261.5 100.5zM530 652q-132 0 -242.5 -93.5t-133.5 -225.5t54.5 -225.5t209.5 -93.5q133 0 243 93.5t133 225.5t-54 225.5t-210 93.5zM393 491h133 q43 0 66.5 -25.5t16.5 -68.5q-7 -38 -36.5 -63t-68.5 -30l63 -146h-22l-62 146h-102l-26 -146h-21zM384 322h100q38 0 68 19.5t36 55.5q6 37 -16 56t-61 19h-100z" />
<glyph unicode="&#xaf;" horiz-adv-x="441" d="M443 591l-4 -23h-237l4 23h237z" />
<glyph unicode="&#xb0;" horiz-adv-x="389" d="M414 555q-9 -51 -51 -87t-92 -36q-52 0 -81.5 36t-20.5 87t51.5 87t93.5 36q50 0 79.5 -36.5t20.5 -86.5zM392 555q7 40 -17.5 70t-64.5 30q-42 0 -76 -29.5t-42 -70.5q-7 -43 16.5 -71t66.5 -28q41 0 75.5 28.5t41.5 70.5z" />
<glyph unicode="&#xb1;" horiz-adv-x="521" d="M290 244h-214l4 27h214l31 174h26l-31 -174h215l-4 -27h-215l-31 -175h-26zM86 25h357l-4 -24h-357z" />
<glyph unicode="&#xb2;" horiz-adv-x="381" d="M177 637l5 30q64 48 141 50q57 1 94 -30.5t27 -86.5q-5 -29 -52 -75.5t-86.5 -77t-106.5 -78.5l-54 -37h254l-4 -22h-289l4 20q23 18 49 37q51 36 81.5 58t78 59.5t73.5 66.5t30 49q8 46 -23 70.5t-79 24.5q-81 -2 -143 -58z" />
<glyph unicode="&#xb3;" horiz-adv-x="371" d="M378 695h-214l4 22h249l-3 -19l-187 -137q25 3 41 2q62 0 95.5 -30.5t22.5 -95.5q-11 -60 -65.5 -93t-117.5 -33q-55 0 -95 28l5 26q41 -33 94 -33q55 0 101.5 27.5t55.5 78.5q9 54 -19.5 79.5t-87.5 25.5q-35 0 -80 -12l4 20z" />
<glyph unicode="&#xb4;" horiz-adv-x="290" d="M197 544l75 123h33l-85 -123h-23z" />
<glyph unicode="&#xb5;" horiz-adv-x="601" d="M207 492l-44 -249q-14 -81 6.5 -138.5t78.5 -78.5q31 -10 71 -9q92 1 176 72l71 403h29l-86 -492h-29l11 65q-92 -76 -180 -76q-141 0 -170 128l-48 -271h-29l114 646h29z" />
<glyph unicode="&#xb6;" horiz-adv-x="668" d="M216 -103l85 482q-60 0 -94 42t-23 102q11 59 60 101.5t108 42.5h341l-4 -26h-100l-132 -744h-27l132 744h-186l-132 -744h-28z" />
<glyph unicode="&#xb7;" horiz-adv-x="139" d="M77 250q2 16 14.5 26.5t27.5 10.5q16 0 24.5 -10.5t6.5 -26.5q-3 -15 -15.5 -25.5t-28.5 -10.5q-15 0 -23.5 10.5t-5.5 25.5z" />
<glyph unicode="&#xb8;" horiz-adv-x="236" d="M139 13l-51 -57q35 8 64 -6t23 -47q-5 -30 -32 -46.5t-61 -16.5q-36 0 -65 15l3 19q30 -17 65 -17q31 0 49 13t21 33q6 32 -34 39.5t-60 -10.5l3 17l56 64h19z" />
<glyph unicode="&#xb9;" horiz-adv-x="221" d="M142 656l5 25l90 36h18l-71 -401h-24l66 374z" />
<glyph unicode="&#xba;" horiz-adv-x="454" d="M342 654q64 0 101.5 -45t26.5 -109t-64.5 -109t-117.5 -45q-65 0 -102 45t-26 109t64 109t118 45zM338 634q-55 0 -101 -39t-56 -95t22.5 -95.5t87.5 -39.5t101.5 40t56.5 95t-23 94.5t-88 39.5z" />
<glyph unicode="&#xbb;" horiz-adv-x="511" d="M105 20l6 36l204 195l-135 195l7 37l155 -222l-4 -20zM243 20l6 36l205 195l-136 195l7 37l155 -222l-4 -20z" />
<glyph unicode="&#xbc;" horiz-adv-x="658" d="M133 606l5 25l90 36h18l-71 -401h-24l66 374zM97 0h-27l581 667h27zM610 401h22l-51 -292h44l-4 -23h-44l-15 -86h-24l15 86h-234l4 22zM352 109h205l45 257z" />
<glyph unicode="&#xbd;" horiz-adv-x="725" d="M78 0h-27l581 667h26zM133 606l5 25l90 36h18l-71 -401h-24l66 374zM465 327l5 30q64 48 141 50q57 1 94.5 -30.5t28.5 -86.5q-5 -29 -51 -75t-89 -78.5t-107 -77.5l-53 -37h254l-3 -22h-290l3 20q17 13 79.5 57.5t105.5 77t83.5 72t44.5 63.5q8 46 -23.5 70.5 t-79.5 24.5q-81 -2 -143 -58z" />
<glyph unicode="&#xbe;" horiz-adv-x="770" d="M369 645h-214l4 22h249l-3 -19l-186 -137q24 3 40 2q62 0 95.5 -30.5t22.5 -95.5q-11 -60 -65 -93t-117 -33q-56 0 -96 28l5 26q41 -33 94 -33q55 0 101.5 27.5t55.5 78.5q9 54 -19.5 79.5t-87.5 25.5q-35 0 -80 -12l4 20zM197 0h-27l581 667h26zM721 401h23l-51 -292h44 l-4 -23h-44l-15 -86h-24l15 86h-234l4 22zM463 109h206l45 257z" />
<glyph unicode="&#xbf;" horiz-adv-x="483" d="M416 502q-3 -16 -15.5 -26.5t-27.5 -10.5q-16 0 -24.5 10.5t-5.5 26.5q3 15 15 25.5t28 10.5q15 0 24 -10.5t6 -25.5zM435 -61l6 34q-102 -85 -208 -85q-71 2 -113.5 47t-30.5 114q5 29 34.5 60.5t68.5 63t78 66.5t70 82.5t39 99.5h-26q-7 -48 -37.5 -93t-70.5 -79.5 t-79.5 -66t-69.5 -66t-36 -67.5q-14 -80 35 -133t131 -55q109 -3 209 78z" />
<glyph unicode="&#xc0;" horiz-adv-x="617" d="M413 835l31 -123h-23l-41 123h33zM563 0l-43 184h-359l-107 -184h-32l388 667h31l154 -667h-32zM515 211l-97 416l-242 -416h339z" />
<glyph unicode="&#xc1;" horiz-adv-x="617" d="M423 715l74 123h33l-84 -123h-23zM410 667l-388 -667h32l107 184h359l43 -184h32l-154 667h-31zM515 211h-339l242 416z" />
<glyph unicode="&#xc2;" horiz-adv-x="617" d="M446 838h20l69 -123h-28l-55 99l-89 -99h-28zM410 667l-388 -667h32l107 184h359l43 -184h32l-154 667h-31zM515 211h-339l242 416z" />
<glyph unicode="&#xc3;" horiz-adv-x="617" d="M554 781l-6 -37q-21 -19 -43 -20t-41 8.5t-39 19t-45 7t-50 -24.5l6 33q24 18 50.5 18t48.5 -9.5t43 -18t40.5 -4.5t35.5 28zM563 0l-43 184h-359l-107 -184h-32l388 667h31l154 -667h-32zM515 211l-97 416l-242 -416h339z" />
<glyph unicode="&#xc4;" horiz-adv-x="617" d="M359 766q2 14 13 23t24 9q14 0 21.5 -9t5.5 -23q-3 -14 -13.5 -23t-24.5 -9t-21.5 9.5t-4.5 22.5zM462 766q2 14 13 23t24 9q14 0 22 -9t6 -23q-3 -14 -14 -23t-25 -9t-21.5 9.5t-4.5 22.5zM410 667l-388 -667h32l107 184h359l43 -184h32l-154 667h-31zM515 211h-339 l242 416z" />
<glyph unicode="&#xc5;" horiz-adv-x="617" d="M458 858q33 0 51.5 -22.5t12.5 -54.5q-5 -32 -32 -55t-60 -23q-32 0 -50 23t-13 55q6 32 32.5 54.5t58.5 22.5zM454 836q-23 0 -41.5 -16t-23.5 -39q-4 -23 9.5 -39.5t35.5 -16.5q23 0 42.5 16.5t23.5 39.5q2 24 -10.5 39.5t-35.5 15.5zM563 0l-43 184h-359l-107 -184 h-32l388 667h31l154 -667h-32zM515 211l-97 416l-242 -416h339z" />
<glyph unicode="&#xc6;" horiz-adv-x="1069" d="M1065 334h-413l-54 -307h423l-4 -27h-453l32 184h-355l-181 -184h-38q659 666 659 667h453l-5 -28h-422q-12 -71 -50 -277h413zM601 211l72 409l-407 -409h335z" />
<glyph unicode="&#xc7;" horiz-adv-x="636" d="M398 -9l-30 -35q35 8 64 -6t23 -47q-5 -30 -32 -46.5t-61 -16.5q-36 0 -65 15l3 19q28 -17 65 -17q30 0 48.5 13.5t21.5 32.5q6 32 -34.5 39.5t-60.5 -10.5l3 17l36 43q-138 4 -218.5 103t-55.5 238q25 142 143.5 242.5t261.5 100.5q88 0 160 -43l-6 -33q-68 48 -159 48 q-130 0 -238.5 -92.5t-131.5 -222.5t53 -222t206 -92q89 0 176 48l-6 -33q-78 -40 -166 -43z" />
<glyph unicode="&#xc8;" horiz-adv-x="577" d="M402 838l32 -123h-23l-42 123h33zM578 362l-5 -28h-413l-54 -307h423l-4 -27h-453l117 667h453l-5 -28h-423l-49 -277h413z" />
<glyph unicode="&#xc9;" horiz-adv-x="577" d="M400 715l74 123h33l-84 -123h-23zM637 639l5 28h-453l-117 -667h453l4 27h-423l54 307h413l5 28h-413l49 277h423z" />
<glyph unicode="&#xca;" horiz-adv-x="577" d="M447 838h21l69 -123h-29l-54 99l-89 -99h-29zM637 639l5 28h-453l-117 -667h453l4 27h-423l54 307h413l5 28h-413l49 277h423z" />
<glyph unicode="&#xcb;" horiz-adv-x="577" d="M358 766q2 14 13 23t24 9q14 0 21.5 -9.5t5.5 -22.5q-3 -14 -13.5 -23t-24.5 -9t-21.5 9t-4.5 23zM461 766q2 14 13 23t24 9q14 0 21.5 -9.5t5.5 -22.5q-3 -14 -13.5 -23t-24.5 -9t-21.5 9t-4.5 23zM637 639l5 28h-453l-117 -667h453l4 27h-423l54 307h413l5 28h-413 l49 277h423z" />
<glyph unicode="&#xcc;" horiz-adv-x="173" d="M193 838l31 -123h-23l-42 123h34zM101 0h-29l117 667h29z" />
<glyph unicode="&#xcd;" horiz-adv-x="173" d="M201 715l74 123h33l-84 -123h-23zM72 0h29l117 667h-29z" />
<glyph unicode="&#xce;" horiz-adv-x="173" d="M224 838h20l69 -123h-28l-55 99l-89 -99h-28zM72 0h29l117 667h-29z" />
<glyph unicode="&#xcf;" horiz-adv-x="173" d="M138 766q2 14 13 23t24 9q14 0 22 -9t6 -23q-7 -32 -39 -32q-14 0 -21.5 9t-4.5 23zM241 766q2 14 13 23t25 9t21.5 -9.5t5.5 -22.5q-3 -14 -13.5 -23t-24.5 -9t-22 9t-5 23zM72 0h29l117 667h-29z" />
<glyph unicode="&#xd0;" d="M189 667h184q141 0 223.5 -97.5t57.5 -236.5q-24 -138 -140.5 -235.5t-257.5 -97.5h-184l56 318h-24l4 26h24zM162 344h177l-4 -26h-177l-52 -290h151q130 0 237.5 89t130.5 216q22 127 -53.5 216.5t-206.5 89.5h-151z" />
<glyph unicode="&#xd1;" horiz-adv-x="637" d="M572 781l-6 -37q-21 -19 -43 -20t-41.5 8.5t-39.5 19t-45 7t-50 -24.5l6 33q24 18 50.5 18t48.5 -9.5t43 -18t41 -4.5t36 28zM543 51l109 616h30l-117 -667h-27l-329 614l-108 -614h-29l117 667h26z" />
<glyph unicode="&#xd2;" horiz-adv-x="792" d="M510 838l32 -123h-23l-42 123h33zM515 676q143 0 225.5 -100.5t57.5 -242.5t-143 -242t-261 -100t-226 100t-58 242q26 143 144 243t261 100zM510 647q-130 0 -238.5 -92t-131.5 -222t53 -222t206 -92t238 92t131 222t-52.5 222t-205.5 92z" />
<glyph unicode="&#xd3;" horiz-adv-x="792" d="M503 715l74 123h33l-84 -123h-23zM515 676q-143 0 -261 -100t-144 -243q-25 -142 58 -242t226 -100t261 100t143 242t-57.5 242.5t-225.5 100.5zM510 647q130 0 205.5 -92t52.5 -222t-131 -222t-238 -92t-206 92t-53 222t131.5 222t238.5 92z" />
<glyph unicode="&#xd4;" horiz-adv-x="792" d="M533 838h21l69 -123h-29l-54 99l-89 -99h-29zM515 676q-143 0 -261 -100t-144 -243q-25 -142 58 -242t226 -100t261 100t143 242t-57.5 242.5t-225.5 100.5zM510 647q130 0 205.5 -92t52.5 -222t-131 -222t-238 -92t-206 92t-53 222t131.5 222t238.5 92z" />
<glyph unicode="&#xd5;" horiz-adv-x="792" d="M647 781l-6 -37q-21 -19 -43 -20t-41.5 8.5l-39 19t-44.5 7t-50 -24.5l6 33q24 18 50.5 18t48 -9.5t42.5 -18t41 -4.5t36 28zM515 676q143 0 225.5 -100.5t57.5 -242.5t-143 -242t-261 -100t-226 100t-58 242q26 143 144 243t261 100zM510 647q-130 0 -238.5 -92 t-131.5 -222t53 -222t206 -92t238 92t131 222t-52.5 222t-205.5 92z" />
<glyph unicode="&#xd6;" horiz-adv-x="792" d="M449 766q2 14 13 23t24 9q14 0 21.5 -9.5t5.5 -22.5q-3 -14 -13.5 -23t-24.5 -9t-21.5 9t-4.5 23zM552 766q2 14 13 23t24 9q14 0 21.5 -9.5t5.5 -22.5q-3 -14 -13.5 -23t-24.5 -9t-21.5 9t-4.5 23zM515 676q-143 0 -261 -100t-144 -243q-25 -142 58 -242t226 -100 t261 100t143 242t-57.5 242.5t-225.5 100.5zM510 647q130 0 205.5 -92t52.5 -222t-131 -222t-238 -92t-206 92t-53 222t131.5 222t238.5 92z" />
<glyph unicode="&#xd7;" horiz-adv-x="618" d="M349 232l-178 -151l-15 19l178 150l-125 151l22 19l125 -151l178 152l15 -19l-177 -152l124 -151l-22 -18z" />
<glyph unicode="&#xd8;" horiz-adv-x="792" d="M128 -12l68 73q-54 48 -77 119t-9 153q26 143 144 243t261 100q112 0 192 -67l75 80h35l-92 -97q100 -102 73 -259q-25 -142 -143 -242t-261 -100q-103 0 -177 55l-55 -58h-34zM218 84l466 500q-73 63 -174 63q-130 0 -238.5 -92t-131.5 -222q-13 -75 8 -140t70 -109z M704 568l-465 -499q69 -50 160 -50q130 0 238 92t131 222q25 138 -64 235z" />
<glyph unicode="&#xd9;" d="M431 838l32 -123h-23l-42 123h33zM683 667l-80 -454q-18 -102 -100.5 -162t-185.5 -60t-164.5 60t-43.5 162l80 454h30l-80 -454q-16 -89 38 -141.5t145 -52.5t163 52t88 142l80 454h30z" />
<glyph unicode="&#xda;" d="M434 715l74 123h33l-84 -123h-23zM653 667l-80 -454q-16 -90 -88 -142t-163 -52t-145 52.5t-38 141.5l80 454h-30l-80 -454q-18 -102 43.5 -162t164.5 -60t185.5 60t100.5 162l80 454h-30z" />
<glyph unicode="&#xdb;" d="M455 838h21l69 -123h-29l-54 99l-89 -99h-29zM653 667l-80 -454q-16 -90 -88 -142t-163 -52t-145 52.5t-38 141.5l80 454h-30l-80 -454q-18 -102 43.5 -162t164.5 -60t185.5 60t100.5 162l80 454h-30z" />
<glyph unicode="&#xdc;" d="M370 766q2 14 13 23t24 9q14 0 21.5 -9.5t5.5 -22.5q-3 -14 -13.5 -23t-24.5 -9t-21.5 9t-4.5 23zM473 766q2 14 13 23t24 9q14 0 21.5 -9.5t5.5 -22.5q-3 -14 -13.5 -23t-24.5 -9t-21.5 9t-4.5 23zM653 667l-80 -454q-16 -90 -88 -142t-163 -52t-145 52.5t-38 141.5 l80 454h-30l-80 -454q-18 -102 43.5 -162t164.5 -60t185.5 60t100.5 162l80 454h-30z" />
<glyph unicode="&#xdd;" horiz-adv-x="534" d="M367 715l74 123h33l-84 -123h-23zM281 0l35 200l313 467h-33l-288 -433l-136 433h-33l148 -468l-35 -199h29z" />
<glyph unicode="&#xde;" horiz-adv-x="576" d="M205 587h224q86 0 133 -51t32 -137q-15 -84 -81 -136t-150 -52h-224l-37 -211h-30l26 151l12 69l79 447h30zM144 240h220q73 0 130 43t70 115q13 75 -28 117.5t-116 42.5h-220z" />
<glyph unicode="&#xdf;" horiz-adv-x="533" d="M55 -91l96 542q41 233 230 233q89 0 129.5 -48.5t26.5 -130.5q-9 -49 -49.5 -91.5t-95.5 -58.5q77 -23 105.5 -74t20.5 -94q-16 -94 -89 -140.5t-212 -46.5l4 27q125 0 189.5 39t79.5 122q10 61 -34.5 102t-102.5 51l4 25q58 12 101 49.5t51 85.5q12 71 -21.5 113 t-111.5 42q-159 0 -196 -205l-96 -542h-29z" />
<glyph unicode="&#xe0;" horiz-adv-x="530" d="M314 667l31 -123h-23l-41 123h33zM424 0l9 57q-82 -66 -175 -66q-55 0 -101 16t-74.5 55t-18.5 96q12 64 65 104.5t118 40.5h228q12 92 -30 132t-138 40q-91 -4 -153 -42l5 30q72 38 163 38q217 0 180 -214q-20 -112 -49 -287h-29zM471 276h-224q-57 0 -100.5 -32 t-52.5 -85q-13 -71 40 -106t130 -35q96 0 173 63z" />
<glyph unicode="&#xe1;" horiz-adv-x="530" d="M315 544l75 123h33l-85 -123h-23zM424 0l9 57q-82 -66 -175 -66q-55 0 -101 16t-74.5 55t-18.5 96q12 64 65 104.5t118 40.5h228q12 92 -30 132t-138 40q-91 -4 -153 -42l5 30q72 38 163 38q217 0 180 -214q-20 -112 -49 -287h-29zM471 276h-224q-57 0 -100.5 -32 t-52.5 -85q-13 -71 40 -106t130 -35q96 0 173 63z" />
<glyph unicode="&#xe2;" horiz-adv-x="530" d="M347 661h21l69 -122h-29l-54 98l-89 -98h-29zM424 0l9 57q-82 -66 -175 -66q-55 0 -101 16t-74.5 55t-18.5 96q12 64 65 104.5t118 40.5h228q12 92 -30 132t-138 40q-91 -4 -153 -42l5 30q72 38 163 38q217 0 180 -214q-20 -112 -49 -287h-29zM471 276h-224 q-57 0 -100.5 -32t-52.5 -85q-13 -71 40 -106t130 -35q96 0 173 63z" />
<glyph unicode="&#xe3;" horiz-adv-x="530" d="M460 639l-6 -36q-21 -19 -43 -20t-41.5 8.5l-39 19t-44.5 6.5t-50 -24l6 32q24 18 50.5 18t48 -9.5t42.5 -18t41 -4.5t36 28zM424 0l9 57q-82 -66 -175 -66q-55 0 -101 16t-74.5 55t-18.5 96q12 64 65 104.5t118 40.5h228q12 92 -30 132t-138 40q-91 -4 -153 -42l5 30 q72 38 163 38q217 0 180 -214q-20 -112 -49 -287h-29zM471 276h-224q-57 0 -100.5 -32t-52.5 -85q-13 -71 40 -106t130 -35q96 0 173 63z" />
<glyph unicode="&#xe4;" horiz-adv-x="530" d="M273 586q2 14 13 23t24 9q14 0 21.5 -9.5t5.5 -22.5t-13 -22.5t-25 -9.5q-13 0 -20.5 9t-5.5 23zM376 586q2 14 13 23t24 9q14 0 21.5 -9.5t5.5 -22.5t-13 -22.5t-25 -9.5q-13 0 -20.5 9t-5.5 23zM424 0l9 57q-82 -66 -175 -66q-55 0 -101 16t-74.5 55t-18.5 96 q12 64 65 104.5t118 40.5h228q12 92 -30 132t-138 40q-91 -4 -153 -42l5 30q72 38 163 38q217 0 180 -214q-20 -112 -49 -287h-29zM471 276h-224q-57 0 -100.5 -32t-52.5 -85q-13 -71 40 -106t130 -35q96 0 173 63z" />
<glyph unicode="&#xe5;" horiz-adv-x="530" d="M377 700q32 0 50.5 -22.5t12.5 -54.5q-5 -32 -31 -55t-59 -23t-51.5 23t-13.5 55q6 32 32.5 54.5t59.5 22.5zM373 678q-24 0 -42.5 -16t-23.5 -39q-4 -23 9.5 -39.5t36.5 -16.5q22 0 41.5 16.5t23.5 39.5q3 23 -10 39t-35 16zM424 0l9 57q-82 -66 -175 -66q-55 0 -101 16 t-74.5 55t-18.5 96q12 64 65 104.5t118 40.5h228q12 92 -30 132t-138 40q-91 -4 -153 -42l5 30q72 38 163 38q217 0 180 -214q-20 -112 -49 -287h-29zM471 276h-224q-57 0 -100.5 -32t-52.5 -85q-13 -71 40 -106t130 -35q96 0 173 63z" />
<glyph unicode="&#xe6;" horiz-adv-x="976" d="M424 0l9 57q-82 -66 -175 -66q-55 0 -101 16t-74.5 55t-18.5 96q12 64 65 104.5t118 40.5h228q12 92 -30 132t-138 40q-91 -4 -153 -42l5 30q72 38 163 38q180 0 185 -147q41 67 109 107t145 40q107 0 165.5 -78.5t39.5 -180.5h-472q-16 -98 42 -161t158 -63 q126 0 227 76l-5 -31q-46 -33 -108 -52.5t-121 -19.5q-79 0 -135 36.5t-77 99.5l-22 -127h-29zM471 277h-224q-56 0 -100 -32.5t-53 -85.5q-13 -71 40 -106t130 -35q96 0 173 63zM500 268h443q9 86 -45 146t-142 60q-90 0 -163 -59t-93 -147z" />
<glyph unicode="&#xe7;" horiz-adv-x="550" d="M337 -9l-31 -35q35 8 64 -6t23 -47q-5 -30 -32 -46.5t-61 -16.5q-36 0 -66 15l3 19q30 -17 66 -17q30 0 48.5 13.5t21.5 32.5q6 32 -34.5 39.5t-60.5 -10.5l3 17l37 42q-109 3 -173 74.5t-45 180.5q20 111 112.5 183t204.5 72q93 0 159 -54l-6 -33q-63 60 -158 60 q-100 0 -183 -64.5t-101 -163.5t43 -163.5t161 -64.5q96 0 179 60l-6 -33q-79 -51 -168 -54z" />
<glyph unicode="&#xe8;" horiz-adv-x="615" d="M358 667h33l31 -123h-23zM598 242h-472q-16 -98 42 -161t158 -63q126 0 227 76l-5 -31q-46 -33 -108 -52.5t-121 -19.5q-115 0 -177.5 74t-42.5 188q21 104 105 176t189 72q107 0 165.5 -78.5t39.5 -180.5zM132 268h443q9 86 -45 146t-142 60q-90 0 -163 -59t-93 -147z " />
<glyph unicode="&#xe9;" horiz-adv-x="615" d="M383 544l75 123h33l-85 -123h-23zM590 242h-472q-16 -98 42 -161t158 -63q126 0 227 76l-5 -31q-46 -33 -108 -52.5t-121 -19.5q-115 0 -177.5 74t-42.5 188q21 104 105 176t189 72q107 0 165.5 -78.5t39.5 -180.5zM124 268h443q9 86 -45 146t-142 60q-90 0 -163 -59 t-93 -147z" />
<glyph unicode="&#xea;" horiz-adv-x="615" d="M413 661h21l69 -122h-29l-54 98l-89 -98h-29zM598 242h-472q-16 -98 42 -161t158 -63q126 0 227 76l-5 -31q-46 -33 -108 -52.5t-121 -19.5q-115 0 -177.5 74t-42.5 188q21 104 105 176t189 72q107 0 165.5 -78.5t39.5 -180.5zM132 268h443q9 86 -45 146t-142 60 q-90 0 -163 -59t-93 -147z" />
<glyph unicode="&#xeb;" horiz-adv-x="615" d="M326 586q2 14 13 23t24 9q14 0 21.5 -9.5t5.5 -22.5q-3 -14 -13.5 -23t-24.5 -9t-21.5 9t-4.5 23zM429 586q2 14 13 23t24 9q14 0 21.5 -9.5t5.5 -22.5q-3 -14 -13.5 -23t-24.5 -9t-21.5 9t-4.5 23zM598 242h-472q-16 -98 42 -161t158 -63q126 0 227 76l-5 -31 q-46 -33 -108 -52.5t-121 -19.5q-115 0 -177.5 74t-42.5 188q21 104 105 176t189 72q107 0 165.5 -78.5t39.5 -180.5zM132 268h443q9 86 -45 146t-142 60q-90 0 -163 -59t-93 -147z" />
<glyph unicode="&#xec;" horiz-adv-x="203" d="M177 667l31 -123h-23l-41 123h33zM116 0h-29l86 492h29z" />
<glyph unicode="&#xed;" horiz-adv-x="203" d="M183 544l75 123h33l-85 -123h-23zM87 0h29l86 492h-29z" />
<glyph unicode="&#xee;" horiz-adv-x="203" d="M207 661h21l69 -122h-29l-54 98l-89 -98h-29zM87 0h29l86 492h-29z" />
<glyph unicode="&#xef;" horiz-adv-x="203" d="M121 586q2 14 13 23t24 9q14 0 22 -9t6 -23q-7 -32 -39 -32q-14 0 -21.5 9t-4.5 23zM224 586q2 14 13 23t25 9t21.5 -9.5t5.5 -22.5q-3 -14 -13.5 -23t-24.5 -9t-22 9t-5 23zM87 0h29l86 492h-29z" />
<glyph unicode="&#xf0;" horiz-adv-x="585" d="M473 535l55 46q-26 37 -73 53t-99 9l1 9q1 3 1.5 8t0.5 8q30 3 56 0q95 -10 137 -65l61 51l14 -17l-61 -52q17 -31 17.5 -71t-10.5 -94l-74 -420h-30l10 57q-86 -66 -187 -66q-110 0 -174.5 72.5t-45.5 182.5t109.5 182.5t200.5 72.5q100 0 162 -75q5 32 7 48.5t0 41.5 t-11 47l-53 -45zM483 81l56 320q-58 73 -162 73q-98 0 -179 -65t-98 -163q-18 -98 40.5 -163t156.5 -65q103 0 186 63z" />
<glyph unicode="&#xf1;" horiz-adv-x="614" d="M527 639l-6 -36q-21 -19 -43 -20t-41 8.5t-39 19t-45 6.5t-50 -24l6 32q24 18 50.5 18t48 -9.5t42.5 -18t41 -4.5t36 28zM202 490l-11 -64q87 75 188 75q109 0 162 -72.5t34 -182.5l-43 -246h-30l43 246q18 99 -28 163.5t-143 64.5q-103 0 -188 -73l-70 -401h-30l86 490 h30z" />
<glyph unicode="&#xf2;" d="M398 667l31 -123h-23l-41 123h33zM407 502q106 0 168.5 -75t43.5 -181t-107.5 -180.5t-194.5 -74.5q-107 0 -169.5 74.5t-43.5 180.5t107.5 181t195.5 75zM402 474q-95 0 -173.5 -67t-94.5 -161q-17 -95 38.5 -161.5t149.5 -66.5t172.5 67t94.5 161t-38.5 161t-148.5 67z " />
<glyph unicode="&#xf3;" d="M399 544l74 123h34l-85 -123h-23zM407 502q-107 0 -195.5 -75t-107.5 -181t43.5 -180.5t169.5 -74.5q106 0 194.5 74.5t107.5 180.5t-43.5 181t-168.5 75zM402 474q94 0 148.5 -67t38.5 -161t-94.5 -161t-172.5 -67t-149.5 66.5t-38.5 161.5q16 94 94.5 161t173.5 67z " />
<glyph unicode="&#xf4;" d="M424 661h20l69 -122h-28l-54 98l-90 -98h-28zM407 502q-107 0 -195.5 -75t-107.5 -181t43.5 -180.5t169.5 -74.5q106 0 194.5 74.5t107.5 180.5t-43.5 181t-168.5 75zM402 474q94 0 148.5 -67t38.5 -161t-94.5 -161t-172.5 -67t-149.5 66.5t-38.5 161.5q16 94 94.5 161 t173.5 67z" />
<glyph unicode="&#xf5;" d="M538 639l-6 -36q-21 -19 -43 -20t-41 8.5t-39 19t-45 6.5t-50 -24l6 32q24 18 50.5 18t48.5 -9.5t43 -18t40.5 -4.5t35.5 28zM407 502q106 0 168.5 -75t43.5 -181t-107.5 -180.5t-194.5 -74.5q-107 0 -169.5 74.5t-43.5 180.5t107.5 181t195.5 75zM402 474 q-95 0 -173.5 -67t-94.5 -161q-17 -95 38.5 -161.5t149.5 -66.5t172.5 67t94.5 161t-38.5 161t-148.5 67z" />
<glyph unicode="&#xf6;" d="M338 586q2 14 13 23t25 9t21.5 -9.5t5.5 -22.5t-13 -22.5t-25 -9.5t-21.5 9t-5.5 23zM441 586q2 14 13 23t25 9t21.5 -9.5t5.5 -22.5t-13 -22.5t-25 -9.5t-21.5 9t-5.5 23zM407 502q-107 0 -195.5 -75t-107.5 -181t43.5 -180.5t169.5 -74.5q106 0 194.5 74.5t107.5 180.5 t-43.5 181t-168.5 75zM402 474q94 0 148.5 -67t38.5 -161t-94.5 -161t-172.5 -67t-149.5 66.5t-38.5 161.5q16 94 94.5 161t173.5 67z" />
<glyph unicode="&#xf7;" horiz-adv-x="618" d="M331 370q2 15 14.5 26t27.5 11q16 0 24.5 -11t6.5 -26q-3 -15 -15.5 -25.5t-28.5 -10.5q-15 0 -23.5 10.5t-5.5 25.5zM582 264h-454l-5 -26h454zM289 132q2 16 14.5 26.5t27.5 10.5q16 0 24.5 -10.5t6.5 -26.5q-3 -15 -15.5 -25.5t-28.5 -10.5q-15 0 -23.5 10.5 t-5.5 25.5z" />
<glyph unicode="&#xf8;" d="M102 -28l66 72q-40 36 -57.5 89t-6.5 113q19 106 107.5 181t195.5 75q86 0 141 -50l63 68h35l-79 -85q72 -76 52 -189q-19 -106 -107.5 -180.5t-194.5 -74.5q-76 0 -128 38l-53 -57h-34zM189 67l338 362q-53 45 -125 45q-95 0 -173.5 -67t-94.5 -161q-20 -111 55 -179z M545 412l-335 -360q46 -34 112 -34q94 0 172.5 67t94.5 161q17 100 -44 166z" />
<glyph unicode="&#xf9;" horiz-adv-x="586" d="M387 667l31 -123h-23l-41 123h33zM469 0l11 64q-91 -75 -179 -75q-108 0 -153 71t-25 183l44 247h30l-44 -247q-18 -101 19.5 -164t132.5 -63q94 0 179 73l71 401h29l-86 -490h-29z" />
<glyph unicode="&#xfa;" horiz-adv-x="586" d="M383 544l75 123h33l-85 -123h-23zM498 0l86 490h-29l-71 -401q-85 -73 -179 -73q-95 0 -132.5 63t-19.5 164l44 247h-29l-44 -247q-20 -112 25 -183t152 -71q86 0 179 75l-11 -64h29z" />
<glyph unicode="&#xfb;" horiz-adv-x="586" d="M398 661h21l69 -122h-29l-54 98l-89 -98h-29zM498 0l86 490h-29l-71 -401q-85 -73 -179 -73q-95 0 -132.5 63t-19.5 164l44 247h-29l-44 -247q-20 -112 25 -183t152 -71q86 0 179 75l-11 -64h29z" />
<glyph unicode="&#xfc;" horiz-adv-x="586" d="M314 586q2 14 13 23t24 9q14 0 21.5 -9.5t5.5 -22.5t-13 -22.5t-25 -9.5q-13 0 -20.5 9t-5.5 23zM417 586q2 14 13 23t24 9q14 0 21.5 -9.5t5.5 -22.5t-13 -22.5t-25 -9.5q-13 0 -20.5 9t-5.5 23zM498 0l86 490h-29l-71 -401q-85 -73 -179 -73q-95 0 -132.5 63t-19.5 164 l44 247h-29l-44 -247q-20 -112 25 -183t152 -71q86 0 179 75l-11 -64h29z" />
<glyph unicode="&#xfd;" horiz-adv-x="517" d="M331 544l75 123h33l-85 -123h-23zM123 492l117 -493q-18 -32 -33.5 -55.5t-38 -51t-48.5 -42t-54 -14.5q-20 0 -39 3l-5 -27q21 -3 42 -3q49 -1 96 39.5t83 102.5l318 541h-31l-268 -455l-107 455h-32z" />
<glyph unicode="&#xfe;" horiz-adv-x="618" d="M204 667h29l-42 -241q86 75 187 75q109 -1 175 -73t46 -182q-19 -110 -110.5 -182t-200.5 -73q-104 0 -162 66q-9 -51 -22 -119t-22 -120h-28zM186 401l-56 -320q60 -63 163 -63q98 0 179.5 65t97.5 163q19 98 -40 163.5t-157 64.5q-101 2 -187 -73z" />
<glyph unicode="&#xff;" horiz-adv-x="517" d="M272 586q2 14 13 23t24 9q14 0 21.5 -9.5t5.5 -22.5q-3 -14 -13.5 -23t-24.5 -9t-21.5 9t-4.5 23zM375 586q2 14 13 23t24 9q14 0 21.5 -9.5t5.5 -22.5q-3 -14 -13.5 -23t-24.5 -9t-21.5 9t-4.5 23zM123 492l117 -493q-18 -32 -33.5 -55.5t-38 -51t-48.5 -42t-54 -14.5 q-20 0 -39 3l-5 -27q21 -3 42 -3q49 -1 96 39.5t83 102.5l318 541h-31l-268 -455l-107 455h-32z" />
<glyph unicode="&#x152;" horiz-adv-x="1215" d="M710 0l36 207q-53 -96 -149.5 -156t-202.5 -60q-143 0 -226 100t-58 242q26 143 144 243t261 100q106 0 181.5 -60.5t93.5 -156.5l37 208h453l-5 -28h-423l-49 -277h412l-5 -28h-412l-54 -307h423l-4 -27h-453zM510 647q-130 0 -238.5 -92t-131.5 -222t53 -222t206 -92 t238 92t131 222t-52.5 222t-205.5 92z" />
<glyph unicode="&#x153;" horiz-adv-x="1085" d="M392 502q83 0 140.5 -47.5t71.5 -122.5q38 75 110.5 122t155.5 47q107 0 165.5 -78.5t39.5 -180.5h-472q-16 -98 42 -161t158 -63q126 0 227 76l-5 -31q-46 -33 -108 -52.5t-121 -19.5q-90 0 -149 46.5t-72 124.5q-40 -76 -114.5 -123.5t-158.5 -47.5q-107 0 -169 74.5 t-43 180.5t107.5 181t194.5 75zM387 474q-95 0 -173.5 -67t-94.5 -161q-17 -95 38.5 -161.5t149.5 -66.5q95 0 173.5 67t94.5 161l1 7q13 92 -42 156.5t-147 64.5zM609 268h443q9 86 -45 146t-142 60q-90 0 -163 -59t-93 -147z" />
<glyph unicode="&#x178;" horiz-adv-x="534" d="M318 766q2 14 13 23t24 9q14 0 21.5 -9.5t5.5 -22.5q-3 -14 -13.5 -23t-24.5 -9t-21.5 9t-4.5 23zM421 766q2 14 13 23t24 9q14 0 21.5 -9.5t5.5 -22.5q-3 -14 -13.5 -23t-24.5 -9t-21.5 9t-4.5 23zM281 0l35 200l313 467h-33l-288 -433l-136 433h-33l148 -468l-35 -199 h29z" />
<glyph unicode="&#x2c6;" horiz-adv-x="287" d="M249 661h21l69 -122h-29l-54 98l-89 -98h-29z" />
<glyph unicode="&#x2dc;" horiz-adv-x="302" d="M371 639l-6 -36q-21 -19 -43 -20t-41.5 8.5l-39 19t-44.5 6.5t-50 -24l6 32q24 18 50.5 18t48 -9.5t42.5 -18t41 -4.5t36 28z" />
<glyph unicode="&#x2000;" horiz-adv-x="429" />
<glyph unicode="&#x2001;" horiz-adv-x="858" />
<glyph unicode="&#x2002;" horiz-adv-x="429" />
<glyph unicode="&#x2003;" horiz-adv-x="858" />
<glyph unicode="&#x2004;" horiz-adv-x="286" />
<glyph unicode="&#x2005;" horiz-adv-x="214" />
<glyph unicode="&#x2006;" horiz-adv-x="143" />
<glyph unicode="&#x2007;" horiz-adv-x="143" />
<glyph unicode="&#x2008;" horiz-adv-x="107" />
<glyph unicode="&#x2009;" horiz-adv-x="171" />
<glyph unicode="&#x200a;" horiz-adv-x="47" />
<glyph unicode="&#x2010;" horiz-adv-x="381" d="M355 264l-5 -26h-237l5 26h237z" />
<glyph unicode="&#x2011;" horiz-adv-x="381" d="M355 264l-5 -26h-237l5 26h237z" />
<glyph unicode="&#x2012;" horiz-adv-x="381" d="M355 264l-5 -26h-237l5 26h237z" />
<glyph unicode="&#x2013;" horiz-adv-x="481" d="M455 264l-5 -26h-337l5 26h337z" />
<glyph unicode="&#x2014;" horiz-adv-x="611" d="M585 264l-5 -26h-467l5 26h467z" />
<glyph unicode="&#x2018;" horiz-adv-x="204" d="M217 530h-21q-29 90 -27 100q2 16 14.5 26.5t28.5 10.5q15 0 23.5 -10.5t6.5 -26.5q-5 -27 -33 -35z" />
<glyph unicode="&#x2019;" horiz-adv-x="204" d="M173 530l30 65q-24 8 -19 35q2 16 14.5 26.5t27.5 10.5q16 0 24.5 -10.5t6.5 -26.5q-3 -12 -63 -100h-21z" />
<glyph unicode="&#x201a;" horiz-adv-x="204" d="M68 -65l31 65q-25 8 -20 35q2 16 14.5 26.5t27.5 10.5q16 0 24.5 -10.5t6.5 -26.5q-3 -11 -63 -100h-21z" />
<glyph unicode="&#x201c;" horiz-adv-x="315" d="M239 667l-29 -65q24 -8 19 -35q-2 -16 -14.5 -26.5t-27.5 -10.5q-16 0 -24.5 10.5t-6.5 26.5q3 12 63 100h20zM353 667l-30 -65q24 -8 19 -35q-2 -16 -14.5 -26.5t-27.5 -10.5q-16 0 -24.5 10.5t-6.5 26.5q3 12 63 100h21z" />
<glyph unicode="&#x201d;" horiz-adv-x="315" d="M172 530l30 65q-24 8 -19 35q2 16 14.5 26.5t27.5 10.5q16 0 24.5 -10.5t6.5 -26.5q-3 -12 -63 -100h-21zM285 530l30 65q-24 8 -19 35q2 16 14.5 26.5t27.5 10.5q16 0 24.5 -10.5t6.5 -26.5q-3 -12 -63 -100h-21z" />
<glyph unicode="&#x201e;" horiz-adv-x="315" d="M67 -65l31 65q-25 8 -20 35q2 16 14.5 26.5t27.5 10.5q16 0 24.5 -10.5t6.5 -26.5q-3 -12 -63 -100h-21zM180 -65l31 65q-25 8 -20 35q2 16 14.5 26.5t27.5 10.5q16 0 24.5 -10.5t6.5 -26.5q-3 -12 -63 -100h-21z" />
<glyph unicode="&#x2022;" horiz-adv-x="298" d="M116 252q6 32 32.5 55t58.5 23t51 -23t13 -55q-5 -31 -32.5 -54t-59.5 -23q-31 0 -49.5 22.5t-13.5 54.5z" />
<glyph unicode="&#x2026;" horiz-adv-x="425" d="M39 36q3 16 15 26.5t27 10.5q16 0 25 -10.5t6 -26.5q-3 -15 -15 -25.5t-28 -10.5q-15 0 -24 10.5t-6 25.5zM182 36q3 16 15 26.5t27 10.5q16 0 25 -10.5t6 -26.5q-3 -15 -15 -25.5t-28 -10.5q-15 0 -24 10.5t-6 25.5zM325 36q3 16 15 26.5t27 10.5q16 0 25 -10.5t6 -26.5 q-3 -15 -15 -25.5t-28 -10.5q-15 0 -24 10.5t-6 25.5z" />
<glyph unicode="&#x202f;" horiz-adv-x="171" />
<glyph unicode="&#x2039;" horiz-adv-x="373" d="M356 483l-7 -37l-203 -195l134 -195l-6 -36l-155 221l4 20z" />
<glyph unicode="&#x203a;" horiz-adv-x="373" d="M105 20l6 36l204 195l-135 195l7 37l155 -222l-4 -20z" />
<glyph unicode="&#x205f;" horiz-adv-x="214" />
<glyph unicode="&#x20ac;" horiz-adv-x="675" d="M100 276h62q2 28 6 57q4 24 14 54h-62l4 24h66q45 116 145 190.5t220 74.5q77 0 148 -43l-5 -31q-68 47 -148 47q-108 0 -198 -67t-131 -172h245l-4 -24h-251q-10 -28 -14 -53q-5 -29 -6 -57h251l-4 -24h-245q5 -103 71.5 -168.5t174.5 -65.5q79 0 164 47l-6 -31 q-84 -43 -163 -43q-119 0 -193 73.5t-78 187.5h-67z" />
<glyph unicode="&#x2122;" horiz-adv-x="796" d="M430 687l-4 -21h-124l-67 -381h-24l67 381h-124l4 21h272zM760 285l60 342l-208 -342h-20l-88 342l-60 -342h-23l71 402h20l96 -369l226 369h21l-71 -402h-24z" />
<glyph unicode="&#x25fc;" horiz-adv-x="490" d="M0 490h490v-490h-490v490z" />
</font>
</defs>
</svg>
